<svg xmlns="http://www.w3.org/2000/svg" width="1000" height="400"><g transform="translate(60,40)"><text x="440" y="-20" text-anchor="middle" style="font-size: 16px; font-weight: bold;">最近14天使用次数趋势</text><g class="grid" transform="translate(0,300)" fill="none" font-size="10" font-family="sans-serif" text-anchor="middle"><path class="domain" stroke="currentColor" d="M0.5,-300V0.5H880.5V-300"></path><g class="tick" opacity="1" transform="translate(0.5,0)"><line stroke="currentColor" y2="-300"></line><text fill="currentColor" y="3" dy="0.71em">Wed 11</text></g><g class="tick" opacity="1" transform="translate(126.21428571428571,0)"><line stroke="currentColor" y2="-300"></line><text fill="currentColor" y="3" dy="0.71em">Thu 12</text></g><g class="tick" opacity="1" transform="translate(251.92857142857142,0)"><line stroke="currentColor" y2="-300"></line><text fill="currentColor" y="3" dy="0.71em">Fri 13</text></g><g class="tick" opacity="1" transform="translate(377.6428571428571,0)"><line stroke="currentColor" y2="-300"></line><text fill="currentColor" y="3" dy="0.71em">Sat 14</text></g><g class="tick" opacity="1" transform="translate(503.35714285714283,0)"><line stroke="currentColor" y2="-300"></line><text fill="currentColor" y="3" dy="0.71em">Dec 15</text></g><g class="tick" opacity="1" transform="translate(629.0714285714286,0)"><line stroke="currentColor" y2="-300"></line><text fill="currentColor" y="3" dy="0.71em">Mon 16</text></g><g class="tick" opacity="1" transform="translate(754.7857142857142,0)"><line stroke="currentColor" y2="-300"></line><text fill="currentColor" y="3" dy="0.71em">Tue 17</text></g><g class="tick" opacity="1" transform="translate(880.5,0)"><line stroke="currentColor" y2="-300"></line><text fill="currentColor" y="3" dy="0.71em">Wed 18</text></g></g><g class="grid" fill="none" font-size="10" font-family="sans-serif" text-anchor="end"><path class="domain" stroke="currentColor" d="M880,300.5H0.5V0.5H880"></path><g class="tick" opacity="1" transform="translate(0,300.5)"><line stroke="currentColor" x2="880"></line><text fill="currentColor" x="-3" dy="0.32em">0</text></g><g class="tick" opacity="1" transform="translate(0,233.83333333333334)"><line stroke="currentColor" x2="880"></line><text fill="currentColor" x="-3" dy="0.32em">100</text></g><g class="tick" opacity="1" transform="translate(0,167.16666666666669)"><line stroke="currentColor" x2="880"></line><text fill="currentColor" x="-3" dy="0.32em">200</text></g><g class="tick" opacity="1" transform="translate(0,100.50000000000001)"><line stroke="currentColor" x2="880"></line><text fill="currentColor" x="-3" dy="0.32em">300</text></g><g class="tick" opacity="1" transform="translate(0,33.83333333333335)"><line stroke="currentColor" x2="880"></line><text fill="currentColor" x="-3" dy="0.32em">400</text></g></g><path class="area" d="M0,300C41.905,300,83.81,300,125.714,300C167.619,300,209.524,300,251.429,300C293.333,300,335.238,286.889,377.143,260.667C419.048,234.444,460.952,62,502.857,62C544.762,62,586.667,107.556,628.571,122.667C670.476,137.778,712.381,136.444,754.286,152.667C796.19,168.889,838.095,194.444,880,220L880,300C838.095,300,796.19,300,754.286,300C712.381,300,670.476,300,628.571,300C586.667,300,544.762,300,502.857,300C460.952,300,419.048,300,377.143,300C335.238,300,293.333,300,251.429,300C209.524,300,167.619,300,125.714,300C83.81,300,41.905,300,0,300Z" style="fill: url(#area-gradient); opacity: 0.3;"></path><path class="line" d="M0,300C41.905,300,83.81,300,125.714,300C167.619,300,209.524,300,251.429,300C293.333,300,335.238,286.889,377.143,260.667C419.048,234.444,460.952,62,502.857,62C544.762,62,586.667,107.556,628.571,122.667C670.476,137.778,712.381,136.444,754.286,152.667C796.19,168.889,838.095,194.444,880,220" style="fill: none; stroke: #2196F3; stroke-width: 2px;"></path><circle class="dot" cx="0" cy="300" r="4" style="fill: #2196F3; stroke: #fff; stroke-width: 2px;"></circle><circle class="dot" cx="125.71428571428571" cy="300" r="4" style="fill: #2196F3; stroke: #fff; stroke-width: 2px;"></circle><circle class="dot" cx="251.42857142857142" cy="300" r="4" style="fill: #2196F3; stroke: #fff; stroke-width: 2px;"></circle><circle class="dot" cx="377.1428571428571" cy="260.66666666666663" r="4" style="fill: #2196F3; stroke: #fff; stroke-width: 2px;"></circle><circle class="dot" cx="502.85714285714283" cy="62" r="4" style="fill: #2196F3; stroke: #fff; stroke-width: 2px;"></circle><circle class="dot" cx="628.5714285714286" cy="122.66666666666666" r="4" style="fill: #2196F3; stroke: #fff; stroke-width: 2px;"></circle><circle class="dot" cx="754.2857142857142" cy="152.66666666666669" r="4" style="fill: #2196F3; stroke: #fff; stroke-width: 2px;"></circle><circle class="dot" cx="880" cy="220.00000000000003" r="4" style="fill: #2196F3; stroke: #fff; stroke-width: 2px;"></circle><text class="label" x="0" y="290" text-anchor="middle" style="font-size: 12px;">0</text><text class="label" x="125.71428571428571" y="290" text-anchor="middle" style="font-size: 12px;">0</text><text class="label" x="251.42857142857142" y="290" text-anchor="middle" style="font-size: 12px;">0</text><text class="label" x="377.1428571428571" y="250.66666666666663" text-anchor="middle" style="font-size: 12px;">59</text><text class="label" x="502.85714285714283" y="52" text-anchor="middle" style="font-size: 12px;">357</text><text class="label" x="628.5714285714286" y="112.66666666666666" text-anchor="middle" style="font-size: 12px;">266</text><text class="label" x="754.2857142857142" y="142.66666666666669" text-anchor="middle" style="font-size: 12px;">221</text><text class="label" x="880" y="210.00000000000003" text-anchor="middle" style="font-size: 12px;">120</text><g class="x-axis" transform="translate(0,300)" fill="none" font-size="10" font-family="sans-serif" text-anchor="middle"><path class="domain" stroke="currentColor" d="M0.5,-300V0.5H880.5V-300"></path><g class="tick" opacity="1" transform="translate(0.5,0)"><line stroke="currentColor" y2="-300"></line><text fill="currentColor" y="3" dy=".15em" style="text-anchor: end;" dx="-.8em" transform="rotate(-45)">Wed 11</text></g><g class="tick" opacity="1" transform="translate(126.21428571428571,0)"><line stroke="currentColor" y2="-300"></line><text fill="currentColor" y="3" dy=".15em" style="text-anchor: end;" dx="-.8em" transform="rotate(-45)">Thu 12</text></g><g class="tick" opacity="1" transform="translate(251.92857142857142,0)"><line stroke="currentColor" y2="-300"></line><text fill="currentColor" y="3" dy=".15em" style="text-anchor: end;" dx="-.8em" transform="rotate(-45)">Fri 13</text></g><g class="tick" opacity="1" transform="translate(377.6428571428571,0)"><line stroke="currentColor" y2="-300"></line><text fill="currentColor" y="3" dy=".15em" style="text-anchor: end;" dx="-.8em" transform="rotate(-45)">Sat 14</text></g><g class="tick" opacity="1" transform="translate(503.35714285714283,0)"><line stroke="currentColor" y2="-300"></line><text fill="currentColor" y="3" dy=".15em" style="text-anchor: end;" dx="-.8em" transform="rotate(-45)">Dec 15</text></g><g class="tick" opacity="1" transform="translate(629.0714285714286,0)"><line stroke="currentColor" y2="-300"></line><text fill="currentColor" y="3" dy=".15em" style="text-anchor: end;" dx="-.8em" transform="rotate(-45)">Mon 16</text></g><g class="tick" opacity="1" transform="translate(754.7857142857142,0)"><line stroke="currentColor" y2="-300"></line><text fill="currentColor" y="3" dy=".15em" style="text-anchor: end;" dx="-.8em" transform="rotate(-45)">Tue 17</text></g><g class="tick" opacity="1" transform="translate(880.5,0)"><line stroke="currentColor" y2="-300"></line><text fill="currentColor" y="3" dy=".15em" style="text-anchor: end;" dx="-.8em" transform="rotate(-45)">Wed 18</text></g></g><g class="y-axis" fill="none" font-size="10" font-family="sans-serif" text-anchor="end"><path class="domain" stroke="currentColor" d="M880,300.5H0.5V0.5H880"></path><g class="tick" opacity="1" transform="translate(0,300.5)"><line stroke="currentColor" x2="880"></line><text fill="currentColor" x="-3" dy="0.32em">0</text></g><g class="tick" opacity="1" transform="translate(0,233.83333333333334)"><line stroke="currentColor" x2="880"></line><text fill="currentColor" x="-3" dy="0.32em">100</text></g><g class="tick" opacity="1" transform="translate(0,167.16666666666669)"><line stroke="currentColor" x2="880"></line><text fill="currentColor" x="-3" dy="0.32em">200</text></g><g class="tick" opacity="1" transform="translate(0,100.50000000000001)"><line stroke="currentColor" x2="880"></line><text fill="currentColor" x="-3" dy="0.32em">300</text></g><g class="tick" opacity="1" transform="translate(0,33.83333333333335)"><line stroke="currentColor" x2="880"></line><text fill="currentColor" x="-3" dy="0.32em">400</text></g></g><style>
    .grid line {
      stroke: #e0e0e0;
      stroke-opacity: 0.7;
      shape-rendering: crispEdges;
    }
    .grid path {
      stroke-width: 0;
    }
    .dot:hover {
      r: 6;
    }
    text {
      font-family: Arial, sans-serif;
    }
    .x-axis path, .y-axis path {
      stroke: #ccc;
    }
    .x-axis text, .y-axis text {
      fill: #666;
    }
  </style></g></svg>