<svg xmlns="http://www.w3.org/2000/svg" width="1000" height="400"><g transform="translate(60,40)"><text x="440" y="-20" text-anchor="middle" style="font-size: 16px; font-weight: bold;">最近14天使用次数趋势</text><g class="grid" transform="translate(0,300)" fill="none" font-size="10" font-family="sans-serif" text-anchor="middle"><path class="domain" stroke="currentColor" d="M0.5,-300V0.5H880.5V-300"></path><g class="tick" opacity="1" transform="translate(0.5,0)"><line stroke="currentColor" y2="-300"></line><text fill="currentColor" y="3" dy="0.71em">Fri 21</text></g><g class="tick" opacity="1" transform="translate(68.1923076923077,0)"><line stroke="currentColor" y2="-300"></line><text fill="currentColor" y="3" dy="0.71em">Sat 22</text></g><g class="tick" opacity="1" transform="translate(135.8846153846154,0)"><line stroke="currentColor" y2="-300"></line><text fill="currentColor" y="3" dy="0.71em">Feb 23</text></g><g class="tick" opacity="1" transform="translate(203.5769230769231,0)"><line stroke="currentColor" y2="-300"></line><text fill="currentColor" y="3" dy="0.71em">Mon 24</text></g><g class="tick" opacity="1" transform="translate(271.2692307692308,0)"><line stroke="currentColor" y2="-300"></line><text fill="currentColor" y="3" dy="0.71em">Tue 25</text></g><g class="tick" opacity="1" transform="translate(338.96153846153845,0)"><line stroke="currentColor" y2="-300"></line><text fill="currentColor" y="3" dy="0.71em">Wed 26</text></g><g class="tick" opacity="1" transform="translate(406.6538461538462,0)"><line stroke="currentColor" y2="-300"></line><text fill="currentColor" y="3" dy="0.71em">Thu 27</text></g><g class="tick" opacity="1" transform="translate(474.3461538461538,0)"><line stroke="currentColor" y2="-300"></line><text fill="currentColor" y="3" dy="0.71em">Fri 28</text></g><g class="tick" opacity="1" transform="translate(542.0384615384615,0)"><line stroke="currentColor" y2="-300"></line><text fill="currentColor" y="3" dy="0.71em">March</text></g><g class="tick" opacity="1" transform="translate(609.7307692307692,0)"><line stroke="currentColor" y2="-300"></line><text fill="currentColor" y="3" dy="0.71em">Mar 02</text></g><g class="tick" opacity="1" transform="translate(677.4230769230769,0)"><line stroke="currentColor" y2="-300"></line><text fill="currentColor" y="3" dy="0.71em">Mon 03</text></g><g class="tick" opacity="1" transform="translate(745.1153846153846,0)"><line stroke="currentColor" y2="-300"></line><text fill="currentColor" y="3" dy="0.71em">Tue 04</text></g><g class="tick" opacity="1" transform="translate(812.8076923076924,0)"><line stroke="currentColor" y2="-300"></line><text fill="currentColor" y="3" dy="0.71em">Wed 05</text></g><g class="tick" opacity="1" transform="translate(880.5,0)"><line stroke="currentColor" y2="-300"></line><text fill="currentColor" y="3" dy="0.71em">Thu 06</text></g></g><g class="grid" fill="none" font-size="10" font-family="sans-serif" text-anchor="end"><path class="domain" stroke="currentColor" d="M880,300.5H0.5V0.5H880"></path><g class="tick" opacity="1" transform="translate(0,300.5)"><line stroke="currentColor" x2="880"></line><text fill="currentColor" x="-3" dy="0.32em">0</text></g><g class="tick" opacity="1" transform="translate(0,245.95454545454544)"><line stroke="currentColor" x2="880"></line><text fill="currentColor" x="-3" dy="0.32em">20</text></g><g class="tick" opacity="1" transform="translate(0,191.4090909090909)"><line stroke="currentColor" x2="880"></line><text fill="currentColor" x="-3" dy="0.32em">40</text></g><g class="tick" opacity="1" transform="translate(0,136.86363636363637)"><line stroke="currentColor" x2="880"></line><text fill="currentColor" x="-3" dy="0.32em">60</text></g><g class="tick" opacity="1" transform="translate(0,82.31818181818181)"><line stroke="currentColor" x2="880"></line><text fill="currentColor" x="-3" dy="0.32em">80</text></g><g class="tick" opacity="1" transform="translate(0,27.77272727272728)"><line stroke="currentColor" x2="880"></line><text fill="currentColor" x="-3" dy="0.32em">100</text></g></g><path class="area" d="M0,300C22.564,263.182,45.128,226.364,67.692,185.455C90.256,144.545,112.821,54.545,135.385,54.545C157.949,54.545,180.513,275.455,203.077,275.455C225.641,275.455,248.205,263.182,270.769,250.909C293.333,238.636,315.897,226.364,338.462,201.818C361.026,177.273,383.59,103.636,406.154,103.636C428.718,103.636,451.282,118.182,473.846,147.273C496.41,176.364,518.974,300,541.538,300C564.103,300,586.667,278.182,609.231,278.182C631.795,278.182,654.359,278.182,676.923,278.182C699.487,278.182,722.051,300,744.615,300C767.179,300,789.744,212.727,812.308,212.727C834.872,212.727,857.436,256.364,880,300L880,300C857.436,300,834.872,300,812.308,300C789.744,300,767.179,300,744.615,300C722.051,300,699.487,300,676.923,300C654.359,300,631.795,300,609.231,300C586.667,300,564.103,300,541.538,300C518.974,300,496.41,300,473.846,300C451.282,300,428.718,300,406.154,300C383.59,300,361.026,300,338.462,300C315.897,300,293.333,300,270.769,300C248.205,300,225.641,300,203.077,300C180.513,300,157.949,300,135.385,300C112.821,300,90.256,300,67.692,300C45.128,300,22.564,300,0,300Z" style="fill: url(#area-gradient); opacity: 0.3;"></path><path class="line" d="M0,300C22.564,263.182,45.128,226.364,67.692,185.455C90.256,144.545,112.821,54.545,135.385,54.545C157.949,54.545,180.513,275.455,203.077,275.455C225.641,275.455,248.205,263.182,270.769,250.909C293.333,238.636,315.897,226.364,338.462,201.818C361.026,177.273,383.59,103.636,406.154,103.636C428.718,103.636,451.282,118.182,473.846,147.273C496.41,176.364,518.974,300,541.538,300C564.103,300,586.667,278.182,609.231,278.182C631.795,278.182,654.359,278.182,676.923,278.182C699.487,278.182,722.051,300,744.615,300C767.179,300,789.744,212.727,812.308,212.727C834.872,212.727,857.436,256.364,880,300" style="fill: none; stroke: #2196F3; stroke-width: 2px;"></path><circle class="dot" cx="0" cy="300" r="4" style="fill: #2196F3; stroke: #fff; stroke-width: 2px;"></circle><circle class="dot" cx="67.6923076923077" cy="185.45454545454544" r="4" style="fill: #2196F3; stroke: #fff; stroke-width: 2px;"></circle><circle class="dot" cx="135.3846153846154" cy="54.54545454545453" r="4" style="fill: #2196F3; stroke: #fff; stroke-width: 2px;"></circle><circle class="dot" cx="203.0769230769231" cy="275.45454545454544" r="4" style="fill: #2196F3; stroke: #fff; stroke-width: 2px;"></circle><circle class="dot" cx="270.7692307692308" cy="250.90909090909093" r="4" style="fill: #2196F3; stroke: #fff; stroke-width: 2px;"></circle><circle class="dot" cx="338.46153846153845" cy="201.8181818181818" r="4" style="fill: #2196F3; stroke: #fff; stroke-width: 2px;"></circle><circle class="dot" cx="406.1538461538462" cy="103.63636363636364" r="4" style="fill: #2196F3; stroke: #fff; stroke-width: 2px;"></circle><circle class="dot" cx="473.8461538461538" cy="147.27272727272728" r="4" style="fill: #2196F3; stroke: #fff; stroke-width: 2px;"></circle><circle class="dot" cx="541.5384615384615" cy="300" r="4" style="fill: #2196F3; stroke: #fff; stroke-width: 2px;"></circle><circle class="dot" cx="609.2307692307692" cy="278.1818181818182" r="4" style="fill: #2196F3; stroke: #fff; stroke-width: 2px;"></circle><circle class="dot" cx="676.9230769230769" cy="278.1818181818182" r="4" style="fill: #2196F3; stroke: #fff; stroke-width: 2px;"></circle><circle class="dot" cx="744.6153846153846" cy="300" r="4" style="fill: #2196F3; stroke: #fff; stroke-width: 2px;"></circle><circle class="dot" cx="812.3076923076924" cy="212.72727272727272" r="4" style="fill: #2196F3; stroke: #fff; stroke-width: 2px;"></circle><circle class="dot" cx="880" cy="300" r="4" style="fill: #2196F3; stroke: #fff; stroke-width: 2px;"></circle><text class="label" x="0" y="290" text-anchor="middle" style="font-size: 12px;">0</text><text class="label" x="67.6923076923077" y="175.45454545454544" text-anchor="middle" style="font-size: 12px;">42</text><text class="label" x="135.3846153846154" y="44.54545454545453" text-anchor="middle" style="font-size: 12px;">90</text><text class="label" x="203.0769230769231" y="265.45454545454544" text-anchor="middle" style="font-size: 12px;">9</text><text class="label" x="270.7692307692308" y="240.90909090909093" text-anchor="middle" style="font-size: 12px;">18</text><text class="label" x="338.46153846153845" y="191.8181818181818" text-anchor="middle" style="font-size: 12px;">36</text><text class="label" x="406.1538461538462" y="93.63636363636364" text-anchor="middle" style="font-size: 12px;">72</text><text class="label" x="473.8461538461538" y="137.27272727272728" text-anchor="middle" style="font-size: 12px;">56</text><text class="label" x="541.5384615384615" y="290" text-anchor="middle" style="font-size: 12px;">0</text><text class="label" x="609.2307692307692" y="268.1818181818182" text-anchor="middle" style="font-size: 12px;">8</text><text class="label" x="676.9230769230769" y="268.1818181818182" text-anchor="middle" style="font-size: 12px;">8</text><text class="label" x="744.6153846153846" y="290" text-anchor="middle" style="font-size: 12px;">0</text><text class="label" x="812.3076923076924" y="202.72727272727272" text-anchor="middle" style="font-size: 12px;">32</text><text class="label" x="880" y="290" text-anchor="middle" style="font-size: 12px;">0</text><g class="x-axis" transform="translate(0,300)" fill="none" font-size="10" font-family="sans-serif" text-anchor="middle"><path class="domain" stroke="currentColor" d="M0.5,-300V0.5H880.5V-300"></path><g class="tick" opacity="1" transform="translate(0.5,0)"><line stroke="currentColor" y2="-300"></line><text fill="currentColor" y="3" dy=".15em" style="text-anchor: end;" dx="-.8em" transform="rotate(-45)">Fri 21</text></g><g class="tick" opacity="1" transform="translate(68.1923076923077,0)"><line stroke="currentColor" y2="-300"></line><text fill="currentColor" y="3" dy=".15em" style="text-anchor: end;" dx="-.8em" transform="rotate(-45)">Sat 22</text></g><g class="tick" opacity="1" transform="translate(135.8846153846154,0)"><line stroke="currentColor" y2="-300"></line><text fill="currentColor" y="3" dy=".15em" style="text-anchor: end;" dx="-.8em" transform="rotate(-45)">Feb 23</text></g><g class="tick" opacity="1" transform="translate(203.5769230769231,0)"><line stroke="currentColor" y2="-300"></line><text fill="currentColor" y="3" dy=".15em" style="text-anchor: end;" dx="-.8em" transform="rotate(-45)">Mon 24</text></g><g class="tick" opacity="1" transform="translate(271.2692307692308,0)"><line stroke="currentColor" y2="-300"></line><text fill="currentColor" y="3" dy=".15em" style="text-anchor: end;" dx="-.8em" transform="rotate(-45)">Tue 25</text></g><g class="tick" opacity="1" transform="translate(338.96153846153845,0)"><line stroke="currentColor" y2="-300"></line><text fill="currentColor" y="3" dy=".15em" style="text-anchor: end;" dx="-.8em" transform="rotate(-45)">Wed 26</text></g><g class="tick" opacity="1" transform="translate(406.6538461538462,0)"><line stroke="currentColor" y2="-300"></line><text fill="currentColor" y="3" dy=".15em" style="text-anchor: end;" dx="-.8em" transform="rotate(-45)">Thu 27</text></g><g class="tick" opacity="1" transform="translate(474.3461538461538,0)"><line stroke="currentColor" y2="-300"></line><text fill="currentColor" y="3" dy=".15em" style="text-anchor: end;" dx="-.8em" transform="rotate(-45)">Fri 28</text></g><g class="tick" opacity="1" transform="translate(542.0384615384615,0)"><line stroke="currentColor" y2="-300"></line><text fill="currentColor" y="3" dy=".15em" style="text-anchor: end;" dx="-.8em" transform="rotate(-45)">March</text></g><g class="tick" opacity="1" transform="translate(609.7307692307692,0)"><line stroke="currentColor" y2="-300"></line><text fill="currentColor" y="3" dy=".15em" style="text-anchor: end;" dx="-.8em" transform="rotate(-45)">Mar 02</text></g><g class="tick" opacity="1" transform="translate(677.4230769230769,0)"><line stroke="currentColor" y2="-300"></line><text fill="currentColor" y="3" dy=".15em" style="text-anchor: end;" dx="-.8em" transform="rotate(-45)">Mon 03</text></g><g class="tick" opacity="1" transform="translate(745.1153846153846,0)"><line stroke="currentColor" y2="-300"></line><text fill="currentColor" y="3" dy=".15em" style="text-anchor: end;" dx="-.8em" transform="rotate(-45)">Tue 04</text></g><g class="tick" opacity="1" transform="translate(812.8076923076924,0)"><line stroke="currentColor" y2="-300"></line><text fill="currentColor" y="3" dy=".15em" style="text-anchor: end;" dx="-.8em" transform="rotate(-45)">Wed 05</text></g><g class="tick" opacity="1" transform="translate(880.5,0)"><line stroke="currentColor" y2="-300"></line><text fill="currentColor" y="3" dy=".15em" style="text-anchor: end;" dx="-.8em" transform="rotate(-45)">Thu 06</text></g></g><g class="y-axis" fill="none" font-size="10" font-family="sans-serif" text-anchor="end"><path class="domain" stroke="currentColor" d="M880,300.5H0.5V0.5H880"></path><g class="tick" opacity="1" transform="translate(0,300.5)"><line stroke="currentColor" x2="880"></line><text fill="currentColor" x="-3" dy="0.32em">0</text></g><g class="tick" opacity="1" transform="translate(0,245.95454545454544)"><line stroke="currentColor" x2="880"></line><text fill="currentColor" x="-3" dy="0.32em">20</text></g><g class="tick" opacity="1" transform="translate(0,191.4090909090909)"><line stroke="currentColor" x2="880"></line><text fill="currentColor" x="-3" dy="0.32em">40</text></g><g class="tick" opacity="1" transform="translate(0,136.86363636363637)"><line stroke="currentColor" x2="880"></line><text fill="currentColor" x="-3" dy="0.32em">60</text></g><g class="tick" opacity="1" transform="translate(0,82.31818181818181)"><line stroke="currentColor" x2="880"></line><text fill="currentColor" x="-3" dy="0.32em">80</text></g><g class="tick" opacity="1" transform="translate(0,27.77272727272728)"><line stroke="currentColor" x2="880"></line><text fill="currentColor" x="-3" dy="0.32em">100</text></g></g><style>
    .grid line {
      stroke: #e0e0e0;
      stroke-opacity: 0.7;
      shape-rendering: crispEdges;
    }
    .grid path {
      stroke-width: 0;
    }
    .dot:hover {
      r: 6;
    }
    text {
      font-family: Arial, sans-serif;
    }
    .x-axis path, .y-axis path {
      stroke: #ccc;
    }
    .x-axis text, .y-axis text {
      fill: #666;
    }
  </style></g></svg>