<svg xmlns="http://www.w3.org/2000/svg" width="1000" height="400"><g transform="translate(60,40)"><text x="440" y="-20" text-anchor="middle" style="font-size: 16px; font-weight: bold;">最近14天使用次数趋势</text><g class="grid" transform="translate(0,300)" fill="none" font-size="10" font-family="sans-serif" text-anchor="middle"><path class="domain" stroke="currentColor" d="M0.5,-300V0.5H880.5V-300"></path><g class="tick" opacity="1" transform="translate(0.5,0)"><line stroke="currentColor" y2="-300"></line><text fill="currentColor" y="3" dy="0.71em">Tue 12</text></g><g class="tick" opacity="1" transform="translate(68.1923076923077,0)"><line stroke="currentColor" y2="-300"></line><text fill="currentColor" y="3" dy="0.71em">Wed 13</text></g><g class="tick" opacity="1" transform="translate(135.8846153846154,0)"><line stroke="currentColor" y2="-300"></line><text fill="currentColor" y="3" dy="0.71em">Thu 14</text></g><g class="tick" opacity="1" transform="translate(203.5769230769231,0)"><line stroke="currentColor" y2="-300"></line><text fill="currentColor" y="3" dy="0.71em">Fri 15</text></g><g class="tick" opacity="1" transform="translate(271.2692307692308,0)"><line stroke="currentColor" y2="-300"></line><text fill="currentColor" y="3" dy="0.71em">Sat 16</text></g><g class="tick" opacity="1" transform="translate(338.96153846153845,0)"><line stroke="currentColor" y2="-300"></line><text fill="currentColor" y="3" dy="0.71em">Nov 17</text></g><g class="tick" opacity="1" transform="translate(406.6538461538462,0)"><line stroke="currentColor" y2="-300"></line><text fill="currentColor" y="3" dy="0.71em">Mon 18</text></g><g class="tick" opacity="1" transform="translate(474.3461538461538,0)"><line stroke="currentColor" y2="-300"></line><text fill="currentColor" y="3" dy="0.71em">Tue 19</text></g><g class="tick" opacity="1" transform="translate(542.0384615384615,0)"><line stroke="currentColor" y2="-300"></line><text fill="currentColor" y="3" dy="0.71em">Wed 20</text></g><g class="tick" opacity="1" transform="translate(609.7307692307692,0)"><line stroke="currentColor" y2="-300"></line><text fill="currentColor" y="3" dy="0.71em">Thu 21</text></g><g class="tick" opacity="1" transform="translate(677.4230769230769,0)"><line stroke="currentColor" y2="-300"></line><text fill="currentColor" y="3" dy="0.71em">Fri 22</text></g><g class="tick" opacity="1" transform="translate(745.1153846153846,0)"><line stroke="currentColor" y2="-300"></line><text fill="currentColor" y="3" dy="0.71em">Sat 23</text></g><g class="tick" opacity="1" transform="translate(812.8076923076924,0)"><line stroke="currentColor" y2="-300"></line><text fill="currentColor" y="3" dy="0.71em">Nov 24</text></g><g class="tick" opacity="1" transform="translate(880.5,0)"><line stroke="currentColor" y2="-300"></line><text fill="currentColor" y="3" dy="0.71em">Mon 25</text></g></g><g class="grid" fill="none" font-size="10" font-family="sans-serif" text-anchor="end"><path class="domain" stroke="currentColor" d="M880,300.5H0.5V0.5H880"></path><g class="tick" opacity="1" transform="translate(0,300.5)"><line stroke="currentColor" x2="880"></line><text fill="currentColor" x="-3" dy="0.32em">0</text></g><g class="tick" opacity="1" transform="translate(0,206.75)"><line stroke="currentColor" x2="880"></line><text fill="currentColor" x="-3" dy="0.32em">50</text></g><g class="tick" opacity="1" transform="translate(0,113)"><line stroke="currentColor" x2="880"></line><text fill="currentColor" x="-3" dy="0.32em">100</text></g><g class="tick" opacity="1" transform="translate(0,19.25)"><line stroke="currentColor" x2="880"></line><text fill="currentColor" x="-3" dy="0.32em">150</text></g></g><path class="area" d="M0,300C22.564,271.875,45.128,243.75,67.692,243.75C90.256,243.75,112.821,243.75,135.385,243.75C157.949,243.75,180.513,242.5,203.077,240C225.641,237.5,248.205,225,270.769,225C293.333,225,315.897,255,338.462,255C361.026,255,383.59,233.125,406.154,221.25C428.718,209.375,451.282,183.75,473.846,183.75C496.41,183.75,518.974,243.75,541.538,243.75C564.103,243.75,586.667,75,609.231,75C631.795,75,654.359,170.625,676.923,170.625C699.487,170.625,722.051,156.563,744.615,142.5C767.179,128.438,789.744,86.25,812.308,86.25C834.872,86.25,857.436,131.25,880,176.25L880,300C857.436,300,834.872,300,812.308,300C789.744,300,767.179,300,744.615,300C722.051,300,699.487,300,676.923,300C654.359,300,631.795,300,609.231,300C586.667,300,564.103,300,541.538,300C518.974,300,496.41,300,473.846,300C451.282,300,428.718,300,406.154,300C383.59,300,361.026,300,338.462,300C315.897,300,293.333,300,270.769,300C248.205,300,225.641,300,203.077,300C180.513,300,157.949,300,135.385,300C112.821,300,90.256,300,67.692,300C45.128,300,22.564,300,0,300Z" style="fill: url(#area-gradient); opacity: 0.3;"></path><path class="line" d="M0,300C22.564,271.875,45.128,243.75,67.692,243.75C90.256,243.75,112.821,243.75,135.385,243.75C157.949,243.75,180.513,242.5,203.077,240C225.641,237.5,248.205,225,270.769,225C293.333,225,315.897,255,338.462,255C361.026,255,383.59,233.125,406.154,221.25C428.718,209.375,451.282,183.75,473.846,183.75C496.41,183.75,518.974,243.75,541.538,243.75C564.103,243.75,586.667,75,609.231,75C631.795,75,654.359,170.625,676.923,170.625C699.487,170.625,722.051,156.563,744.615,142.5C767.179,128.438,789.744,86.25,812.308,86.25C834.872,86.25,857.436,131.25,880,176.25" style="fill: none; stroke: #2196F3; stroke-width: 2px;"></path><circle class="dot" cx="0" cy="300" r="4" style="fill: #2196F3; stroke: #fff; stroke-width: 2px;"></circle><circle class="dot" cx="67.6923076923077" cy="243.75" r="4" style="fill: #2196F3; stroke: #fff; stroke-width: 2px;"></circle><circle class="dot" cx="135.3846153846154" cy="243.75" r="4" style="fill: #2196F3; stroke: #fff; stroke-width: 2px;"></circle><circle class="dot" cx="203.0769230769231" cy="240" r="4" style="fill: #2196F3; stroke: #fff; stroke-width: 2px;"></circle><circle class="dot" cx="270.7692307692308" cy="225" r="4" style="fill: #2196F3; stroke: #fff; stroke-width: 2px;"></circle><circle class="dot" cx="338.46153846153845" cy="255" r="4" style="fill: #2196F3; stroke: #fff; stroke-width: 2px;"></circle><circle class="dot" cx="406.1538461538462" cy="221.25" r="4" style="fill: #2196F3; stroke: #fff; stroke-width: 2px;"></circle><circle class="dot" cx="473.8461538461538" cy="183.75" r="4" style="fill: #2196F3; stroke: #fff; stroke-width: 2px;"></circle><circle class="dot" cx="541.5384615384615" cy="243.75" r="4" style="fill: #2196F3; stroke: #fff; stroke-width: 2px;"></circle><circle class="dot" cx="609.2307692307692" cy="75" r="4" style="fill: #2196F3; stroke: #fff; stroke-width: 2px;"></circle><circle class="dot" cx="676.9230769230769" cy="170.625" r="4" style="fill: #2196F3; stroke: #fff; stroke-width: 2px;"></circle><circle class="dot" cx="744.6153846153846" cy="142.5" r="4" style="fill: #2196F3; stroke: #fff; stroke-width: 2px;"></circle><circle class="dot" cx="812.3076923076924" cy="86.25" r="4" style="fill: #2196F3; stroke: #fff; stroke-width: 2px;"></circle><circle class="dot" cx="880" cy="176.25" r="4" style="fill: #2196F3; stroke: #fff; stroke-width: 2px;"></circle><text class="label" x="0" y="290" text-anchor="middle" style="font-size: 12px;">0</text><text class="label" x="67.6923076923077" y="233.75" text-anchor="middle" style="font-size: 12px;">30</text><text class="label" x="135.3846153846154" y="233.75" text-anchor="middle" style="font-size: 12px;">30</text><text class="label" x="203.0769230769231" y="230" text-anchor="middle" style="font-size: 12px;">32</text><text class="label" x="270.7692307692308" y="215" text-anchor="middle" style="font-size: 12px;">40</text><text class="label" x="338.46153846153845" y="245" text-anchor="middle" style="font-size: 12px;">24</text><text class="label" x="406.1538461538462" y="211.25" text-anchor="middle" style="font-size: 12px;">42</text><text class="label" x="473.8461538461538" y="173.75" text-anchor="middle" style="font-size: 12px;">62</text><text class="label" x="541.5384615384615" y="233.75" text-anchor="middle" style="font-size: 12px;">30</text><text class="label" x="609.2307692307692" y="65" text-anchor="middle" style="font-size: 12px;">120</text><text class="label" x="676.9230769230769" y="160.625" text-anchor="middle" style="font-size: 12px;">69</text><text class="label" x="744.6153846153846" y="132.5" text-anchor="middle" style="font-size: 12px;">84</text><text class="label" x="812.3076923076924" y="76.25" text-anchor="middle" style="font-size: 12px;">114</text><text class="label" x="880" y="166.25" text-anchor="middle" style="font-size: 12px;">66</text><g class="x-axis" transform="translate(0,300)" fill="none" font-size="10" font-family="sans-serif" text-anchor="middle"><path class="domain" stroke="currentColor" d="M0.5,-300V0.5H880.5V-300"></path><g class="tick" opacity="1" transform="translate(0.5,0)"><line stroke="currentColor" y2="-300"></line><text fill="currentColor" y="3" dy=".15em" style="text-anchor: end;" dx="-.8em" transform="rotate(-45)">Tue 12</text></g><g class="tick" opacity="1" transform="translate(68.1923076923077,0)"><line stroke="currentColor" y2="-300"></line><text fill="currentColor" y="3" dy=".15em" style="text-anchor: end;" dx="-.8em" transform="rotate(-45)">Wed 13</text></g><g class="tick" opacity="1" transform="translate(135.8846153846154,0)"><line stroke="currentColor" y2="-300"></line><text fill="currentColor" y="3" dy=".15em" style="text-anchor: end;" dx="-.8em" transform="rotate(-45)">Thu 14</text></g><g class="tick" opacity="1" transform="translate(203.5769230769231,0)"><line stroke="currentColor" y2="-300"></line><text fill="currentColor" y="3" dy=".15em" style="text-anchor: end;" dx="-.8em" transform="rotate(-45)">Fri 15</text></g><g class="tick" opacity="1" transform="translate(271.2692307692308,0)"><line stroke="currentColor" y2="-300"></line><text fill="currentColor" y="3" dy=".15em" style="text-anchor: end;" dx="-.8em" transform="rotate(-45)">Sat 16</text></g><g class="tick" opacity="1" transform="translate(338.96153846153845,0)"><line stroke="currentColor" y2="-300"></line><text fill="currentColor" y="3" dy=".15em" style="text-anchor: end;" dx="-.8em" transform="rotate(-45)">Nov 17</text></g><g class="tick" opacity="1" transform="translate(406.6538461538462,0)"><line stroke="currentColor" y2="-300"></line><text fill="currentColor" y="3" dy=".15em" style="text-anchor: end;" dx="-.8em" transform="rotate(-45)">Mon 18</text></g><g class="tick" opacity="1" transform="translate(474.3461538461538,0)"><line stroke="currentColor" y2="-300"></line><text fill="currentColor" y="3" dy=".15em" style="text-anchor: end;" dx="-.8em" transform="rotate(-45)">Tue 19</text></g><g class="tick" opacity="1" transform="translate(542.0384615384615,0)"><line stroke="currentColor" y2="-300"></line><text fill="currentColor" y="3" dy=".15em" style="text-anchor: end;" dx="-.8em" transform="rotate(-45)">Wed 20</text></g><g class="tick" opacity="1" transform="translate(609.7307692307692,0)"><line stroke="currentColor" y2="-300"></line><text fill="currentColor" y="3" dy=".15em" style="text-anchor: end;" dx="-.8em" transform="rotate(-45)">Thu 21</text></g><g class="tick" opacity="1" transform="translate(677.4230769230769,0)"><line stroke="currentColor" y2="-300"></line><text fill="currentColor" y="3" dy=".15em" style="text-anchor: end;" dx="-.8em" transform="rotate(-45)">Fri 22</text></g><g class="tick" opacity="1" transform="translate(745.1153846153846,0)"><line stroke="currentColor" y2="-300"></line><text fill="currentColor" y="3" dy=".15em" style="text-anchor: end;" dx="-.8em" transform="rotate(-45)">Sat 23</text></g><g class="tick" opacity="1" transform="translate(812.8076923076924,0)"><line stroke="currentColor" y2="-300"></line><text fill="currentColor" y="3" dy=".15em" style="text-anchor: end;" dx="-.8em" transform="rotate(-45)">Nov 24</text></g><g class="tick" opacity="1" transform="translate(880.5,0)"><line stroke="currentColor" y2="-300"></line><text fill="currentColor" y="3" dy=".15em" style="text-anchor: end;" dx="-.8em" transform="rotate(-45)">Mon 25</text></g></g><g class="y-axis" fill="none" font-size="10" font-family="sans-serif" text-anchor="end"><path class="domain" stroke="currentColor" d="M880,300.5H0.5V0.5H880"></path><g class="tick" opacity="1" transform="translate(0,300.5)"><line stroke="currentColor" x2="880"></line><text fill="currentColor" x="-3" dy="0.32em">0</text></g><g class="tick" opacity="1" transform="translate(0,206.75)"><line stroke="currentColor" x2="880"></line><text fill="currentColor" x="-3" dy="0.32em">50</text></g><g class="tick" opacity="1" transform="translate(0,113)"><line stroke="currentColor" x2="880"></line><text fill="currentColor" x="-3" dy="0.32em">100</text></g><g class="tick" opacity="1" transform="translate(0,19.25)"><line stroke="currentColor" x2="880"></line><text fill="currentColor" x="-3" dy="0.32em">150</text></g></g><style>
    .grid line {
      stroke: #e0e0e0;
      stroke-opacity: 0.7;
      shape-rendering: crispEdges;
    }
    .grid path {
      stroke-width: 0;
    }
    .dot:hover {
      r: 6;
    }
    text {
      font-family: Arial, sans-serif;
    }
    .x-axis path, .y-axis path {
      stroke: #ccc;
    }
    .x-axis text, .y-axis text {
      fill: #666;
    }
  </style></g></svg>