<svg xmlns="http://www.w3.org/2000/svg" width="800" height="400"><g transform="translate(60,40)"><text x="340" y="-20" text-anchor="middle" style="font-size: 16px; font-weight: bold;">使用量趋势图</text><g class="grid" transform="translate(0,310)" fill="none" font-size="10" font-family="sans-serif" text-anchor="middle"><path class="domain" stroke="currentColor" d="M0.5,-310V0.5H680.5V-310"></path><g class="tick" opacity="1" transform="translate(0.5,0)"><line stroke="currentColor" y2="-310"></line><text fill="currentColor" y="3" dy="0.71em">Sat 16</text></g><g class="tick" opacity="1" transform="translate(113.83333333333333,0)"><line stroke="currentColor" y2="-310"></line><text fill="currentColor" y="3" dy="0.71em">Nov 17</text></g><g class="tick" opacity="1" transform="translate(227.16666666666666,0)"><line stroke="currentColor" y2="-310"></line><text fill="currentColor" y="3" dy="0.71em">Mon 18</text></g><g class="tick" opacity="1" transform="translate(340.5,0)"><line stroke="currentColor" y2="-310"></line><text fill="currentColor" y="3" dy="0.71em">Tue 19</text></g><g class="tick" opacity="1" transform="translate(453.8333333333333,0)"><line stroke="currentColor" y2="-310"></line><text fill="currentColor" y="3" dy="0.71em">Wed 20</text></g><g class="tick" opacity="1" transform="translate(567.1666666666667,0)"><line stroke="currentColor" y2="-310"></line><text fill="currentColor" y="3" dy="0.71em">Thu 21</text></g><g class="tick" opacity="1" transform="translate(680.5,0)"><line stroke="currentColor" y2="-310"></line><text fill="currentColor" y="3" dy="0.71em">Fri 22</text></g></g><g class="grid" fill="none" font-size="10" font-family="sans-serif" text-anchor="end"><path class="domain" stroke="currentColor" d="M680,310.5H0.5V0.5H680"></path><g class="tick" opacity="1" transform="translate(0,310.5)"><line stroke="currentColor" x2="680"></line><text fill="currentColor" x="-3" dy="0.32em">0</text></g><g class="tick" opacity="1" transform="translate(0,245.91666666666666)"><line stroke="currentColor" x2="680"></line><text fill="currentColor" x="-3" dy="0.32em">500</text></g><g class="tick" opacity="1" transform="translate(0,181.33333333333331)"><line stroke="currentColor" x2="680"></line><text fill="currentColor" x="-3" dy="0.32em">1,000</text></g><g class="tick" opacity="1" transform="translate(0,116.75)"><line stroke="currentColor" x2="680"></line><text fill="currentColor" x="-3" dy="0.32em">1,500</text></g><g class="tick" opacity="1" transform="translate(0,52.16666666666666)"><line stroke="currentColor" x2="680"></line><text fill="currentColor" x="-3" dy="0.32em">2,000</text></g></g><path class="area" d="M680,58.125C642.222,57.673,604.444,57.221,566.667,55.412C528.889,53.604,491.111,42.496,453.333,39.913C415.556,37.329,377.778,38.018,340,36.037C302.222,34.057,264.444,30.268,226.667,28.029C188.889,25.79,151.111,24.025,113.333,22.604C75.556,21.183,37.778,20.344,0,19.504L0,310C37.778,310,75.556,310,113.333,310C151.111,310,188.889,310,226.667,310C264.444,310,302.222,310,340,310C377.778,310,415.556,310,453.333,310C491.111,310,528.889,310,566.667,310C604.444,310,642.222,310,680,310Z" style="fill: url(#area-gradient); opacity: 0.3;"></path><path class="line" d="M680,58.125C642.222,57.673,604.444,57.221,566.667,55.412C528.889,53.604,491.111,42.496,453.333,39.913C415.556,37.329,377.778,38.018,340,36.037C302.222,34.057,264.444,30.268,226.667,28.029C188.889,25.79,151.111,24.025,113.333,22.604C75.556,21.183,37.778,20.344,0,19.504" style="fill: none; stroke: #2196F3; stroke-width: 2px;"></path><circle class="dot" cx="680" cy="58.125" r="4" style="fill: #2196F3; stroke: #fff; stroke-width: 2px;"></circle><circle class="dot" cx="566.6666666666667" cy="55.41249999999999" r="4" style="fill: #2196F3; stroke: #fff; stroke-width: 2px;"></circle><circle class="dot" cx="453.3333333333333" cy="39.91250000000001" r="4" style="fill: #2196F3; stroke: #fff; stroke-width: 2px;"></circle><circle class="dot" cx="340" cy="36.03749999999999" r="4" style="fill: #2196F3; stroke: #fff; stroke-width: 2px;"></circle><circle class="dot" cx="226.66666666666666" cy="28.029166666666676" r="4" style="fill: #2196F3; stroke: #fff; stroke-width: 2px;"></circle><circle class="dot" cx="113.33333333333333" cy="22.604166666666654" r="4" style="fill: #2196F3; stroke: #fff; stroke-width: 2px;"></circle><circle class="dot" cx="0" cy="19.504166666666652" r="4" style="fill: #2196F3; stroke: #fff; stroke-width: 2px;"></circle><text class="label" x="680" y="48.125" text-anchor="middle" style="font-size: 12px;">1950</text><text class="label" x="566.6666666666667" y="45.41249999999999" text-anchor="middle" style="font-size: 12px;">1971</text><text class="label" x="453.3333333333333" y="29.91250000000001" text-anchor="middle" style="font-size: 12px;">2091</text><text class="label" x="340" y="26.037499999999987" text-anchor="middle" style="font-size: 12px;">2121</text><text class="label" x="226.66666666666666" y="18.029166666666676" text-anchor="middle" style="font-size: 12px;">2183</text><text class="label" x="113.33333333333333" y="12.604166666666654" text-anchor="middle" style="font-size: 12px;">2225</text><text class="label" x="0" y="9.504166666666652" text-anchor="middle" style="font-size: 12px;">2249</text><g class="x-axis" transform="translate(0,310)" fill="none" font-size="10" font-family="sans-serif" text-anchor="middle"><path class="domain" stroke="currentColor" d="M0.5,-310V0.5H680.5V-310"></path><g class="tick" opacity="1" transform="translate(0.5,0)"><line stroke="currentColor" y2="-310"></line><text fill="currentColor" y="3" dy="0.71em" style="text-anchor: middle;">Sat 16</text></g><g class="tick" opacity="1" transform="translate(113.83333333333333,0)"><line stroke="currentColor" y2="-310"></line><text fill="currentColor" y="3" dy="0.71em" style="text-anchor: middle;">Nov 17</text></g><g class="tick" opacity="1" transform="translate(227.16666666666666,0)"><line stroke="currentColor" y2="-310"></line><text fill="currentColor" y="3" dy="0.71em" style="text-anchor: middle;">Mon 18</text></g><g class="tick" opacity="1" transform="translate(340.5,0)"><line stroke="currentColor" y2="-310"></line><text fill="currentColor" y="3" dy="0.71em" style="text-anchor: middle;">Tue 19</text></g><g class="tick" opacity="1" transform="translate(453.8333333333333,0)"><line stroke="currentColor" y2="-310"></line><text fill="currentColor" y="3" dy="0.71em" style="text-anchor: middle;">Wed 20</text></g><g class="tick" opacity="1" transform="translate(567.1666666666667,0)"><line stroke="currentColor" y2="-310"></line><text fill="currentColor" y="3" dy="0.71em" style="text-anchor: middle;">Thu 21</text></g><g class="tick" opacity="1" transform="translate(680.5,0)"><line stroke="currentColor" y2="-310"></line><text fill="currentColor" y="3" dy="0.71em" style="text-anchor: middle;">Fri 22</text></g></g><g class="y-axis" fill="none" font-size="10" font-family="sans-serif" text-anchor="end"><path class="domain" stroke="currentColor" d="M680,310.5H0.5V0.5H680"></path><g class="tick" opacity="1" transform="translate(0,310.5)"><line stroke="currentColor" x2="680"></line><text fill="currentColor" x="-3" dy="0.32em">0</text></g><g class="tick" opacity="1" transform="translate(0,245.91666666666666)"><line stroke="currentColor" x2="680"></line><text fill="currentColor" x="-3" dy="0.32em">500</text></g><g class="tick" opacity="1" transform="translate(0,181.33333333333331)"><line stroke="currentColor" x2="680"></line><text fill="currentColor" x="-3" dy="0.32em">1,000</text></g><g class="tick" opacity="1" transform="translate(0,116.75)"><line stroke="currentColor" x2="680"></line><text fill="currentColor" x="-3" dy="0.32em">1,500</text></g><g class="tick" opacity="1" transform="translate(0,52.16666666666666)"><line stroke="currentColor" x2="680"></line><text fill="currentColor" x="-3" dy="0.32em">2,000</text></g></g><style>
    .grid line {
      stroke: #e0e0e0;
      stroke-opacity: 0.7;
      shape-rendering: crispEdges;
    }
    .grid path {
      stroke-width: 0;
    }
    .dot:hover {
      r: 6;
    }
    text {
      font-family: Arial, sans-serif;
    }
    .x-axis path, .y-axis path {
      stroke: #ccc;
    }
    .x-axis text, .y-axis text {
      fill: #666;
    }
  </style></g></svg>