<svg xmlns="http://www.w3.org/2000/svg" width="1000" height="400"><g transform="translate(60,40)"><text x="440" y="-20" text-anchor="middle" style="font-size: 16px; font-weight: bold;">最近14天使用次数趋势</text><g class="grid" transform="translate(0,300)" fill="none" font-size="10" font-family="sans-serif" text-anchor="middle"><path class="domain" stroke="currentColor" d="M0.5,-300V0.5H880.5V-300"></path><g class="tick" opacity="1" transform="translate(0.5,0)"><line stroke="currentColor" y2="-300"></line><text fill="currentColor" y="3" dy="0.71em">Wed 11</text></g><g class="tick" opacity="1" transform="translate(73.83333333333333,0)"><line stroke="currentColor" y2="-300"></line><text fill="currentColor" y="3" dy="0.71em">Thu 12</text></g><g class="tick" opacity="1" transform="translate(147.16666666666666,0)"><line stroke="currentColor" y2="-300"></line><text fill="currentColor" y="3" dy="0.71em">Fri 13</text></g><g class="tick" opacity="1" transform="translate(220.5,0)"><line stroke="currentColor" y2="-300"></line><text fill="currentColor" y="3" dy="0.71em">Sat 14</text></g><g class="tick" opacity="1" transform="translate(293.8333333333333,0)"><line stroke="currentColor" y2="-300"></line><text fill="currentColor" y="3" dy="0.71em">Dec 15</text></g><g class="tick" opacity="1" transform="translate(367.1666666666667,0)"><line stroke="currentColor" y2="-300"></line><text fill="currentColor" y="3" dy="0.71em">Mon 16</text></g><g class="tick" opacity="1" transform="translate(440.5,0)"><line stroke="currentColor" y2="-300"></line><text fill="currentColor" y="3" dy="0.71em">Tue 17</text></g><g class="tick" opacity="1" transform="translate(513.8333333333334,0)"><line stroke="currentColor" y2="-300"></line><text fill="currentColor" y="3" dy="0.71em">Wed 18</text></g><g class="tick" opacity="1" transform="translate(587.1666666666666,0)"><line stroke="currentColor" y2="-300"></line><text fill="currentColor" y="3" dy="0.71em">Thu 19</text></g><g class="tick" opacity="1" transform="translate(660.5,0)"><line stroke="currentColor" y2="-300"></line><text fill="currentColor" y="3" dy="0.71em">Fri 20</text></g><g class="tick" opacity="1" transform="translate(733.8333333333334,0)"><line stroke="currentColor" y2="-300"></line><text fill="currentColor" y="3" dy="0.71em">Sat 21</text></g><g class="tick" opacity="1" transform="translate(807.1666666666666,0)"><line stroke="currentColor" y2="-300"></line><text fill="currentColor" y="3" dy="0.71em">Dec 22</text></g><g class="tick" opacity="1" transform="translate(880.5,0)"><line stroke="currentColor" y2="-300"></line><text fill="currentColor" y="3" dy="0.71em">Mon 23</text></g></g><g class="grid" fill="none" font-size="10" font-family="sans-serif" text-anchor="end"><path class="domain" stroke="currentColor" d="M880,300.5H0.5V0.5H880"></path><g class="tick" opacity="1" transform="translate(0,300.5)"><line stroke="currentColor" x2="880"></line><text fill="currentColor" x="-3" dy="0.32em">0</text></g><g class="tick" opacity="1" transform="translate(0,233.83333333333334)"><line stroke="currentColor" x2="880"></line><text fill="currentColor" x="-3" dy="0.32em">100</text></g><g class="tick" opacity="1" transform="translate(0,167.16666666666669)"><line stroke="currentColor" x2="880"></line><text fill="currentColor" x="-3" dy="0.32em">200</text></g><g class="tick" opacity="1" transform="translate(0,100.50000000000001)"><line stroke="currentColor" x2="880"></line><text fill="currentColor" x="-3" dy="0.32em">300</text></g><g class="tick" opacity="1" transform="translate(0,33.83333333333335)"><line stroke="currentColor" x2="880"></line><text fill="currentColor" x="-3" dy="0.32em">400</text></g></g><path class="area" d="M0,300C24.444,300,48.889,300,73.333,300C97.778,300,122.222,300,146.667,300C171.111,300,195.556,286.889,220,260.667C244.444,234.444,268.889,62,293.333,62C317.778,62,342.222,107.556,366.667,122.667C391.111,137.778,415.556,142.444,440,152.667C464.444,162.889,488.889,184,513.333,184C537.778,184,562.222,153.222,586.667,144C611.111,134.778,635.556,138.889,660,128.667C684.444,118.444,708.889,76,733.333,76C757.778,76,782.222,261.111,806.667,276.667C831.111,292.222,855.556,296.111,880,300L880,300C855.556,300,831.111,300,806.667,300C782.222,300,757.778,300,733.333,300C708.889,300,684.444,300,660,300C635.556,300,611.111,300,586.667,300C562.222,300,537.778,300,513.333,300C488.889,300,464.444,300,440,300C415.556,300,391.111,300,366.667,300C342.222,300,317.778,300,293.333,300C268.889,300,244.444,300,220,300C195.556,300,171.111,300,146.667,300C122.222,300,97.778,300,73.333,300C48.889,300,24.444,300,0,300Z" style="fill: url(#area-gradient); opacity: 0.3;"></path><path class="line" d="M0,300C24.444,300,48.889,300,73.333,300C97.778,300,122.222,300,146.667,300C171.111,300,195.556,286.889,220,260.667C244.444,234.444,268.889,62,293.333,62C317.778,62,342.222,107.556,366.667,122.667C391.111,137.778,415.556,142.444,440,152.667C464.444,162.889,488.889,184,513.333,184C537.778,184,562.222,153.222,586.667,144C611.111,134.778,635.556,138.889,660,128.667C684.444,118.444,708.889,76,733.333,76C757.778,76,782.222,261.111,806.667,276.667C831.111,292.222,855.556,296.111,880,300" style="fill: none; stroke: #2196F3; stroke-width: 2px;"></path><circle class="dot" cx="0" cy="300" r="4" style="fill: #2196F3; stroke: #fff; stroke-width: 2px;"></circle><circle class="dot" cx="73.33333333333333" cy="300" r="4" style="fill: #2196F3; stroke: #fff; stroke-width: 2px;"></circle><circle class="dot" cx="146.66666666666666" cy="300" r="4" style="fill: #2196F3; stroke: #fff; stroke-width: 2px;"></circle><circle class="dot" cx="220" cy="260.66666666666663" r="4" style="fill: #2196F3; stroke: #fff; stroke-width: 2px;"></circle><circle class="dot" cx="293.3333333333333" cy="62" r="4" style="fill: #2196F3; stroke: #fff; stroke-width: 2px;"></circle><circle class="dot" cx="366.6666666666667" cy="122.66666666666666" r="4" style="fill: #2196F3; stroke: #fff; stroke-width: 2px;"></circle><circle class="dot" cx="440" cy="152.66666666666669" r="4" style="fill: #2196F3; stroke: #fff; stroke-width: 2px;"></circle><circle class="dot" cx="513.3333333333334" cy="184" r="4" style="fill: #2196F3; stroke: #fff; stroke-width: 2px;"></circle><circle class="dot" cx="586.6666666666666" cy="144" r="4" style="fill: #2196F3; stroke: #fff; stroke-width: 2px;"></circle><circle class="dot" cx="660" cy="128.66666666666666" r="4" style="fill: #2196F3; stroke: #fff; stroke-width: 2px;"></circle><circle class="dot" cx="733.3333333333334" cy="75.99999999999999" r="4" style="fill: #2196F3; stroke: #fff; stroke-width: 2px;"></circle><circle class="dot" cx="806.6666666666666" cy="276.6666666666667" r="4" style="fill: #2196F3; stroke: #fff; stroke-width: 2px;"></circle><circle class="dot" cx="880" cy="300" r="4" style="fill: #2196F3; stroke: #fff; stroke-width: 2px;"></circle><text class="label" x="0" y="290" text-anchor="middle" style="font-size: 12px;">0</text><text class="label" x="73.33333333333333" y="290" text-anchor="middle" style="font-size: 12px;">0</text><text class="label" x="146.66666666666666" y="290" text-anchor="middle" style="font-size: 12px;">0</text><text class="label" x="220" y="250.66666666666663" text-anchor="middle" style="font-size: 12px;">59</text><text class="label" x="293.3333333333333" y="52" text-anchor="middle" style="font-size: 12px;">357</text><text class="label" x="366.6666666666667" y="112.66666666666666" text-anchor="middle" style="font-size: 12px;">266</text><text class="label" x="440" y="142.66666666666669" text-anchor="middle" style="font-size: 12px;">221</text><text class="label" x="513.3333333333334" y="174" text-anchor="middle" style="font-size: 12px;">174</text><text class="label" x="586.6666666666666" y="134" text-anchor="middle" style="font-size: 12px;">234</text><text class="label" x="660" y="118.66666666666666" text-anchor="middle" style="font-size: 12px;">257</text><text class="label" x="733.3333333333334" y="65.99999999999999" text-anchor="middle" style="font-size: 12px;">336</text><text class="label" x="806.6666666666666" y="266.6666666666667" text-anchor="middle" style="font-size: 12px;">35</text><text class="label" x="880" y="290" text-anchor="middle" style="font-size: 12px;">0</text><g class="x-axis" transform="translate(0,300)" fill="none" font-size="10" font-family="sans-serif" text-anchor="middle"><path class="domain" stroke="currentColor" d="M0.5,-300V0.5H880.5V-300"></path><g class="tick" opacity="1" transform="translate(0.5,0)"><line stroke="currentColor" y2="-300"></line><text fill="currentColor" y="3" dy=".15em" style="text-anchor: end;" dx="-.8em" transform="rotate(-45)">Wed 11</text></g><g class="tick" opacity="1" transform="translate(73.83333333333333,0)"><line stroke="currentColor" y2="-300"></line><text fill="currentColor" y="3" dy=".15em" style="text-anchor: end;" dx="-.8em" transform="rotate(-45)">Thu 12</text></g><g class="tick" opacity="1" transform="translate(147.16666666666666,0)"><line stroke="currentColor" y2="-300"></line><text fill="currentColor" y="3" dy=".15em" style="text-anchor: end;" dx="-.8em" transform="rotate(-45)">Fri 13</text></g><g class="tick" opacity="1" transform="translate(220.5,0)"><line stroke="currentColor" y2="-300"></line><text fill="currentColor" y="3" dy=".15em" style="text-anchor: end;" dx="-.8em" transform="rotate(-45)">Sat 14</text></g><g class="tick" opacity="1" transform="translate(293.8333333333333,0)"><line stroke="currentColor" y2="-300"></line><text fill="currentColor" y="3" dy=".15em" style="text-anchor: end;" dx="-.8em" transform="rotate(-45)">Dec 15</text></g><g class="tick" opacity="1" transform="translate(367.1666666666667,0)"><line stroke="currentColor" y2="-300"></line><text fill="currentColor" y="3" dy=".15em" style="text-anchor: end;" dx="-.8em" transform="rotate(-45)">Mon 16</text></g><g class="tick" opacity="1" transform="translate(440.5,0)"><line stroke="currentColor" y2="-300"></line><text fill="currentColor" y="3" dy=".15em" style="text-anchor: end;" dx="-.8em" transform="rotate(-45)">Tue 17</text></g><g class="tick" opacity="1" transform="translate(513.8333333333334,0)"><line stroke="currentColor" y2="-300"></line><text fill="currentColor" y="3" dy=".15em" style="text-anchor: end;" dx="-.8em" transform="rotate(-45)">Wed 18</text></g><g class="tick" opacity="1" transform="translate(587.1666666666666,0)"><line stroke="currentColor" y2="-300"></line><text fill="currentColor" y="3" dy=".15em" style="text-anchor: end;" dx="-.8em" transform="rotate(-45)">Thu 19</text></g><g class="tick" opacity="1" transform="translate(660.5,0)"><line stroke="currentColor" y2="-300"></line><text fill="currentColor" y="3" dy=".15em" style="text-anchor: end;" dx="-.8em" transform="rotate(-45)">Fri 20</text></g><g class="tick" opacity="1" transform="translate(733.8333333333334,0)"><line stroke="currentColor" y2="-300"></line><text fill="currentColor" y="3" dy=".15em" style="text-anchor: end;" dx="-.8em" transform="rotate(-45)">Sat 21</text></g><g class="tick" opacity="1" transform="translate(807.1666666666666,0)"><line stroke="currentColor" y2="-300"></line><text fill="currentColor" y="3" dy=".15em" style="text-anchor: end;" dx="-.8em" transform="rotate(-45)">Dec 22</text></g><g class="tick" opacity="1" transform="translate(880.5,0)"><line stroke="currentColor" y2="-300"></line><text fill="currentColor" y="3" dy=".15em" style="text-anchor: end;" dx="-.8em" transform="rotate(-45)">Mon 23</text></g></g><g class="y-axis" fill="none" font-size="10" font-family="sans-serif" text-anchor="end"><path class="domain" stroke="currentColor" d="M880,300.5H0.5V0.5H880"></path><g class="tick" opacity="1" transform="translate(0,300.5)"><line stroke="currentColor" x2="880"></line><text fill="currentColor" x="-3" dy="0.32em">0</text></g><g class="tick" opacity="1" transform="translate(0,233.83333333333334)"><line stroke="currentColor" x2="880"></line><text fill="currentColor" x="-3" dy="0.32em">100</text></g><g class="tick" opacity="1" transform="translate(0,167.16666666666669)"><line stroke="currentColor" x2="880"></line><text fill="currentColor" x="-3" dy="0.32em">200</text></g><g class="tick" opacity="1" transform="translate(0,100.50000000000001)"><line stroke="currentColor" x2="880"></line><text fill="currentColor" x="-3" dy="0.32em">300</text></g><g class="tick" opacity="1" transform="translate(0,33.83333333333335)"><line stroke="currentColor" x2="880"></line><text fill="currentColor" x="-3" dy="0.32em">400</text></g></g><style>
    .grid line {
      stroke: #e0e0e0;
      stroke-opacity: 0.7;
      shape-rendering: crispEdges;
    }
    .grid path {
      stroke-width: 0;
    }
    .dot:hover {
      r: 6;
    }
    text {
      font-family: Arial, sans-serif;
    }
    .x-axis path, .y-axis path {
      stroke: #ccc;
    }
    .x-axis text, .y-axis text {
      fill: #666;
    }
  </style></g></svg>