<svg xmlns="http://www.w3.org/2000/svg" width="1000" height="400"><g transform="translate(60,40)"><text x="440" y="-20" text-anchor="middle" style="font-size: 16px; font-weight: bold;">最近14天使用次数趋势</text><g class="grid" transform="translate(0,300)" fill="none" font-size="10" font-family="sans-serif" text-anchor="middle"><path class="domain" stroke="currentColor" d="M0.5,-300V0.5H880.5V-300"></path><g class="tick" opacity="1" transform="translate(0.5,0)"><line stroke="currentColor" y2="-300"></line><text fill="currentColor" y="3" dy="0.71em">Wed 11</text></g><g class="tick" opacity="1" transform="translate(98.27777777777777,0)"><line stroke="currentColor" y2="-300"></line><text fill="currentColor" y="3" dy="0.71em">Thu 12</text></g><g class="tick" opacity="1" transform="translate(196.05555555555554,0)"><line stroke="currentColor" y2="-300"></line><text fill="currentColor" y="3" dy="0.71em">Fri 13</text></g><g class="tick" opacity="1" transform="translate(293.8333333333333,0)"><line stroke="currentColor" y2="-300"></line><text fill="currentColor" y="3" dy="0.71em">Sat 14</text></g><g class="tick" opacity="1" transform="translate(391.6111111111111,0)"><line stroke="currentColor" y2="-300"></line><text fill="currentColor" y="3" dy="0.71em">Dec 15</text></g><g class="tick" opacity="1" transform="translate(489.3888888888889,0)"><line stroke="currentColor" y2="-300"></line><text fill="currentColor" y="3" dy="0.71em">Mon 16</text></g><g class="tick" opacity="1" transform="translate(587.1666666666666,0)"><line stroke="currentColor" y2="-300"></line><text fill="currentColor" y="3" dy="0.71em">Tue 17</text></g><g class="tick" opacity="1" transform="translate(684.9444444444445,0)"><line stroke="currentColor" y2="-300"></line><text fill="currentColor" y="3" dy="0.71em">Wed 18</text></g><g class="tick" opacity="1" transform="translate(782.7222222222222,0)"><line stroke="currentColor" y2="-300"></line><text fill="currentColor" y="3" dy="0.71em">Thu 19</text></g><g class="tick" opacity="1" transform="translate(880.5,0)"><line stroke="currentColor" y2="-300"></line><text fill="currentColor" y="3" dy="0.71em">Fri 20</text></g></g><g class="grid" fill="none" font-size="10" font-family="sans-serif" text-anchor="end"><path class="domain" stroke="currentColor" d="M880,300.5H0.5V0.5H880"></path><g class="tick" opacity="1" transform="translate(0,300.5)"><line stroke="currentColor" x2="880"></line><text fill="currentColor" x="-3" dy="0.32em">0</text></g><g class="tick" opacity="1" transform="translate(0,233.83333333333334)"><line stroke="currentColor" x2="880"></line><text fill="currentColor" x="-3" dy="0.32em">100</text></g><g class="tick" opacity="1" transform="translate(0,167.16666666666669)"><line stroke="currentColor" x2="880"></line><text fill="currentColor" x="-3" dy="0.32em">200</text></g><g class="tick" opacity="1" transform="translate(0,100.50000000000001)"><line stroke="currentColor" x2="880"></line><text fill="currentColor" x="-3" dy="0.32em">300</text></g><g class="tick" opacity="1" transform="translate(0,33.83333333333335)"><line stroke="currentColor" x2="880"></line><text fill="currentColor" x="-3" dy="0.32em">400</text></g></g><path class="area" d="M0,300C32.593,300,65.185,300,97.778,300C130.37,300,162.963,300,195.556,300C228.148,300,260.741,286.889,293.333,260.667C325.926,234.444,358.519,62,391.111,62C423.704,62,456.296,107.556,488.889,122.667C521.481,137.778,554.074,142.444,586.667,152.667C619.259,162.889,651.852,184,684.444,184C717.037,184,749.63,144,782.222,144C814.815,144,847.407,171.333,880,198.667L880,300C847.407,300,814.815,300,782.222,300C749.63,300,717.037,300,684.444,300C651.852,300,619.259,300,586.667,300C554.074,300,521.481,300,488.889,300C456.296,300,423.704,300,391.111,300C358.519,300,325.926,300,293.333,300C260.741,300,228.148,300,195.556,300C162.963,300,130.37,300,97.778,300C65.185,300,32.593,300,0,300Z" style="fill: url(#area-gradient); opacity: 0.3;"></path><path class="line" d="M0,300C32.593,300,65.185,300,97.778,300C130.37,300,162.963,300,195.556,300C228.148,300,260.741,286.889,293.333,260.667C325.926,234.444,358.519,62,391.111,62C423.704,62,456.296,107.556,488.889,122.667C521.481,137.778,554.074,142.444,586.667,152.667C619.259,162.889,651.852,184,684.444,184C717.037,184,749.63,144,782.222,144C814.815,144,847.407,171.333,880,198.667" style="fill: none; stroke: #2196F3; stroke-width: 2px;"></path><circle class="dot" cx="0" cy="300" r="4" style="fill: #2196F3; stroke: #fff; stroke-width: 2px;"></circle><circle class="dot" cx="97.77777777777777" cy="300" r="4" style="fill: #2196F3; stroke: #fff; stroke-width: 2px;"></circle><circle class="dot" cx="195.55555555555554" cy="300" r="4" style="fill: #2196F3; stroke: #fff; stroke-width: 2px;"></circle><circle class="dot" cx="293.3333333333333" cy="260.66666666666663" r="4" style="fill: #2196F3; stroke: #fff; stroke-width: 2px;"></circle><circle class="dot" cx="391.1111111111111" cy="62" r="4" style="fill: #2196F3; stroke: #fff; stroke-width: 2px;"></circle><circle class="dot" cx="488.8888888888889" cy="122.66666666666666" r="4" style="fill: #2196F3; stroke: #fff; stroke-width: 2px;"></circle><circle class="dot" cx="586.6666666666666" cy="152.66666666666669" r="4" style="fill: #2196F3; stroke: #fff; stroke-width: 2px;"></circle><circle class="dot" cx="684.4444444444445" cy="184" r="4" style="fill: #2196F3; stroke: #fff; stroke-width: 2px;"></circle><circle class="dot" cx="782.2222222222222" cy="144" r="4" style="fill: #2196F3; stroke: #fff; stroke-width: 2px;"></circle><circle class="dot" cx="880" cy="198.66666666666669" r="4" style="fill: #2196F3; stroke: #fff; stroke-width: 2px;"></circle><text class="label" x="0" y="290" text-anchor="middle" style="font-size: 12px;">0</text><text class="label" x="97.77777777777777" y="290" text-anchor="middle" style="font-size: 12px;">0</text><text class="label" x="195.55555555555554" y="290" text-anchor="middle" style="font-size: 12px;">0</text><text class="label" x="293.3333333333333" y="250.66666666666663" text-anchor="middle" style="font-size: 12px;">59</text><text class="label" x="391.1111111111111" y="52" text-anchor="middle" style="font-size: 12px;">357</text><text class="label" x="488.8888888888889" y="112.66666666666666" text-anchor="middle" style="font-size: 12px;">266</text><text class="label" x="586.6666666666666" y="142.66666666666669" text-anchor="middle" style="font-size: 12px;">221</text><text class="label" x="684.4444444444445" y="174" text-anchor="middle" style="font-size: 12px;">174</text><text class="label" x="782.2222222222222" y="134" text-anchor="middle" style="font-size: 12px;">234</text><text class="label" x="880" y="188.66666666666669" text-anchor="middle" style="font-size: 12px;">152</text><g class="x-axis" transform="translate(0,300)" fill="none" font-size="10" font-family="sans-serif" text-anchor="middle"><path class="domain" stroke="currentColor" d="M0.5,-300V0.5H880.5V-300"></path><g class="tick" opacity="1" transform="translate(0.5,0)"><line stroke="currentColor" y2="-300"></line><text fill="currentColor" y="3" dy=".15em" style="text-anchor: end;" dx="-.8em" transform="rotate(-45)">Wed 11</text></g><g class="tick" opacity="1" transform="translate(98.27777777777777,0)"><line stroke="currentColor" y2="-300"></line><text fill="currentColor" y="3" dy=".15em" style="text-anchor: end;" dx="-.8em" transform="rotate(-45)">Thu 12</text></g><g class="tick" opacity="1" transform="translate(196.05555555555554,0)"><line stroke="currentColor" y2="-300"></line><text fill="currentColor" y="3" dy=".15em" style="text-anchor: end;" dx="-.8em" transform="rotate(-45)">Fri 13</text></g><g class="tick" opacity="1" transform="translate(293.8333333333333,0)"><line stroke="currentColor" y2="-300"></line><text fill="currentColor" y="3" dy=".15em" style="text-anchor: end;" dx="-.8em" transform="rotate(-45)">Sat 14</text></g><g class="tick" opacity="1" transform="translate(391.6111111111111,0)"><line stroke="currentColor" y2="-300"></line><text fill="currentColor" y="3" dy=".15em" style="text-anchor: end;" dx="-.8em" transform="rotate(-45)">Dec 15</text></g><g class="tick" opacity="1" transform="translate(489.3888888888889,0)"><line stroke="currentColor" y2="-300"></line><text fill="currentColor" y="3" dy=".15em" style="text-anchor: end;" dx="-.8em" transform="rotate(-45)">Mon 16</text></g><g class="tick" opacity="1" transform="translate(587.1666666666666,0)"><line stroke="currentColor" y2="-300"></line><text fill="currentColor" y="3" dy=".15em" style="text-anchor: end;" dx="-.8em" transform="rotate(-45)">Tue 17</text></g><g class="tick" opacity="1" transform="translate(684.9444444444445,0)"><line stroke="currentColor" y2="-300"></line><text fill="currentColor" y="3" dy=".15em" style="text-anchor: end;" dx="-.8em" transform="rotate(-45)">Wed 18</text></g><g class="tick" opacity="1" transform="translate(782.7222222222222,0)"><line stroke="currentColor" y2="-300"></line><text fill="currentColor" y="3" dy=".15em" style="text-anchor: end;" dx="-.8em" transform="rotate(-45)">Thu 19</text></g><g class="tick" opacity="1" transform="translate(880.5,0)"><line stroke="currentColor" y2="-300"></line><text fill="currentColor" y="3" dy=".15em" style="text-anchor: end;" dx="-.8em" transform="rotate(-45)">Fri 20</text></g></g><g class="y-axis" fill="none" font-size="10" font-family="sans-serif" text-anchor="end"><path class="domain" stroke="currentColor" d="M880,300.5H0.5V0.5H880"></path><g class="tick" opacity="1" transform="translate(0,300.5)"><line stroke="currentColor" x2="880"></line><text fill="currentColor" x="-3" dy="0.32em">0</text></g><g class="tick" opacity="1" transform="translate(0,233.83333333333334)"><line stroke="currentColor" x2="880"></line><text fill="currentColor" x="-3" dy="0.32em">100</text></g><g class="tick" opacity="1" transform="translate(0,167.16666666666669)"><line stroke="currentColor" x2="880"></line><text fill="currentColor" x="-3" dy="0.32em">200</text></g><g class="tick" opacity="1" transform="translate(0,100.50000000000001)"><line stroke="currentColor" x2="880"></line><text fill="currentColor" x="-3" dy="0.32em">300</text></g><g class="tick" opacity="1" transform="translate(0,33.83333333333335)"><line stroke="currentColor" x2="880"></line><text fill="currentColor" x="-3" dy="0.32em">400</text></g></g><style>
    .grid line {
      stroke: #e0e0e0;
      stroke-opacity: 0.7;
      shape-rendering: crispEdges;
    }
    .grid path {
      stroke-width: 0;
    }
    .dot:hover {
      r: 6;
    }
    text {
      font-family: Arial, sans-serif;
    }
    .x-axis path, .y-axis path {
      stroke: #ccc;
    }
    .x-axis text, .y-axis text {
      fill: #666;
    }
  </style></g></svg>