<svg xmlns="http://www.w3.org/2000/svg" width="1000" height="400"><g transform="translate(60,40)"><text x="440" y="-20" text-anchor="middle" style="font-size: 16px; font-weight: bold;">最近14天使用次数趋势</text><g class="grid" transform="translate(0,300)" fill="none" font-size="10" font-family="sans-serif" text-anchor="middle"><path class="domain" stroke="currentColor" d="M0.5,-300V0.5H880.5V-300"></path><g class="tick" opacity="1" transform="translate(0.5,0)"><line stroke="currentColor" y2="-300"></line><text fill="currentColor" y="3" dy="0.71em">Wed 25</text></g><g class="tick" opacity="1" transform="translate(68.1923076923077,0)"><line stroke="currentColor" y2="-300"></line><text fill="currentColor" y="3" dy="0.71em">Thu 26</text></g><g class="tick" opacity="1" transform="translate(135.8846153846154,0)"><line stroke="currentColor" y2="-300"></line><text fill="currentColor" y="3" dy="0.71em">Fri 27</text></g><g class="tick" opacity="1" transform="translate(203.5769230769231,0)"><line stroke="currentColor" y2="-300"></line><text fill="currentColor" y="3" dy="0.71em">Sat 28</text></g><g class="tick" opacity="1" transform="translate(271.2692307692308,0)"><line stroke="currentColor" y2="-300"></line><text fill="currentColor" y="3" dy="0.71em">Dec 29</text></g><g class="tick" opacity="1" transform="translate(338.96153846153845,0)"><line stroke="currentColor" y2="-300"></line><text fill="currentColor" y="3" dy="0.71em">Mon 30</text></g><g class="tick" opacity="1" transform="translate(406.6538461538462,0)"><line stroke="currentColor" y2="-300"></line><text fill="currentColor" y="3" dy="0.71em">Tue 31</text></g><g class="tick" opacity="1" transform="translate(474.3461538461538,0)"><line stroke="currentColor" y2="-300"></line><text fill="currentColor" y="3" dy="0.71em">2025</text></g><g class="tick" opacity="1" transform="translate(542.0384615384615,0)"><line stroke="currentColor" y2="-300"></line><text fill="currentColor" y="3" dy="0.71em">Thu 02</text></g><g class="tick" opacity="1" transform="translate(609.7307692307692,0)"><line stroke="currentColor" y2="-300"></line><text fill="currentColor" y="3" dy="0.71em">Fri 03</text></g><g class="tick" opacity="1" transform="translate(677.4230769230769,0)"><line stroke="currentColor" y2="-300"></line><text fill="currentColor" y="3" dy="0.71em">Sat 04</text></g><g class="tick" opacity="1" transform="translate(745.1153846153846,0)"><line stroke="currentColor" y2="-300"></line><text fill="currentColor" y="3" dy="0.71em">Jan 05</text></g><g class="tick" opacity="1" transform="translate(812.8076923076924,0)"><line stroke="currentColor" y2="-300"></line><text fill="currentColor" y="3" dy="0.71em">Mon 06</text></g><g class="tick" opacity="1" transform="translate(880.5,0)"><line stroke="currentColor" y2="-300"></line><text fill="currentColor" y="3" dy="0.71em">Tue 07</text></g></g><g class="grid" fill="none" font-size="10" font-family="sans-serif" text-anchor="end"><path class="domain" stroke="currentColor" d="M880,300.5H0.5V0.5H880"></path><g class="tick" opacity="1" transform="translate(0,300.5)"><line stroke="currentColor" x2="880"></line><text fill="currentColor" x="-3" dy="0.32em">0</text></g><g class="tick" opacity="1" transform="translate(0,254.34615384615384)"><line stroke="currentColor" x2="880"></line><text fill="currentColor" x="-3" dy="0.32em">100</text></g><g class="tick" opacity="1" transform="translate(0,208.19230769230768)"><line stroke="currentColor" x2="880"></line><text fill="currentColor" x="-3" dy="0.32em">200</text></g><g class="tick" opacity="1" transform="translate(0,162.03846153846152)"><line stroke="currentColor" x2="880"></line><text fill="currentColor" x="-3" dy="0.32em">300</text></g><g class="tick" opacity="1" transform="translate(0,115.88461538461537)"><line stroke="currentColor" x2="880"></line><text fill="currentColor" x="-3" dy="0.32em">400</text></g><g class="tick" opacity="1" transform="translate(0,69.73076923076921)"><line stroke="currentColor" x2="880"></line><text fill="currentColor" x="-3" dy="0.32em">500</text></g><g class="tick" opacity="1" transform="translate(0,23.576923076923062)"><line stroke="currentColor" x2="880"></line><text fill="currentColor" x="-3" dy="0.32em">600</text></g></g><path class="area" d="M0,300C22.564,293.538,45.128,287.077,67.692,287.077C90.256,287.077,112.821,300,135.385,300C157.949,300,180.513,283.846,203.077,283.846C225.641,283.846,248.205,296.769,270.769,296.769C293.333,296.769,315.897,296.769,338.462,296.769C361.026,296.769,383.59,295.692,406.154,293.538C428.718,291.385,451.282,283.846,473.846,283.846C496.41,283.846,518.974,300,541.538,300C564.103,300,586.667,296.769,609.231,296.769C631.795,296.769,654.359,300,676.923,300C699.487,300,722.051,298.923,744.615,296.769C767.179,294.615,789.744,51.692,812.308,51.692C834.872,51.692,857.436,162.923,880,274.154L880,300C857.436,300,834.872,300,812.308,300C789.744,300,767.179,300,744.615,300C722.051,300,699.487,300,676.923,300C654.359,300,631.795,300,609.231,300C586.667,300,564.103,300,541.538,300C518.974,300,496.41,300,473.846,300C451.282,300,428.718,300,406.154,300C383.59,300,361.026,300,338.462,300C315.897,300,293.333,300,270.769,300C248.205,300,225.641,300,203.077,300C180.513,300,157.949,300,135.385,300C112.821,300,90.256,300,67.692,300C45.128,300,22.564,300,0,300Z" style="fill: url(#area-gradient); opacity: 0.3;"></path><path class="line" d="M0,300C22.564,293.538,45.128,287.077,67.692,287.077C90.256,287.077,112.821,300,135.385,300C157.949,300,180.513,283.846,203.077,283.846C225.641,283.846,248.205,296.769,270.769,296.769C293.333,296.769,315.897,296.769,338.462,296.769C361.026,296.769,383.59,295.692,406.154,293.538C428.718,291.385,451.282,283.846,473.846,283.846C496.41,283.846,518.974,300,541.538,300C564.103,300,586.667,296.769,609.231,296.769C631.795,296.769,654.359,300,676.923,300C699.487,300,722.051,298.923,744.615,296.769C767.179,294.615,789.744,51.692,812.308,51.692C834.872,51.692,857.436,162.923,880,274.154" style="fill: none; stroke: #2196F3; stroke-width: 2px;"></path><circle class="dot" cx="0" cy="300" r="4" style="fill: #2196F3; stroke: #fff; stroke-width: 2px;"></circle><circle class="dot" cx="67.6923076923077" cy="287.07692307692304" r="4" style="fill: #2196F3; stroke: #fff; stroke-width: 2px;"></circle><circle class="dot" cx="135.3846153846154" cy="300" r="4" style="fill: #2196F3; stroke: #fff; stroke-width: 2px;"></circle><circle class="dot" cx="203.0769230769231" cy="283.8461538461538" r="4" style="fill: #2196F3; stroke: #fff; stroke-width: 2px;"></circle><circle class="dot" cx="270.7692307692308" cy="296.7692307692308" r="4" style="fill: #2196F3; stroke: #fff; stroke-width: 2px;"></circle><circle class="dot" cx="338.46153846153845" cy="296.7692307692308" r="4" style="fill: #2196F3; stroke: #fff; stroke-width: 2px;"></circle><circle class="dot" cx="406.1538461538462" cy="293.53846153846155" r="4" style="fill: #2196F3; stroke: #fff; stroke-width: 2px;"></circle><circle class="dot" cx="473.8461538461538" cy="283.8461538461538" r="4" style="fill: #2196F3; stroke: #fff; stroke-width: 2px;"></circle><circle class="dot" cx="541.5384615384615" cy="300" r="4" style="fill: #2196F3; stroke: #fff; stroke-width: 2px;"></circle><circle class="dot" cx="609.2307692307692" cy="296.7692307692308" r="4" style="fill: #2196F3; stroke: #fff; stroke-width: 2px;"></circle><circle class="dot" cx="676.9230769230769" cy="300" r="4" style="fill: #2196F3; stroke: #fff; stroke-width: 2px;"></circle><circle class="dot" cx="744.6153846153846" cy="296.7692307692308" r="4" style="fill: #2196F3; stroke: #fff; stroke-width: 2px;"></circle><circle class="dot" cx="812.3076923076924" cy="51.69230769230768" r="4" style="fill: #2196F3; stroke: #fff; stroke-width: 2px;"></circle><circle class="dot" cx="880" cy="274.15384615384613" r="4" style="fill: #2196F3; stroke: #fff; stroke-width: 2px;"></circle><text class="label" x="0" y="290" text-anchor="middle" style="font-size: 12px;">0</text><text class="label" x="67.6923076923077" y="277.07692307692304" text-anchor="middle" style="font-size: 12px;">28</text><text class="label" x="135.3846153846154" y="290" text-anchor="middle" style="font-size: 12px;">0</text><text class="label" x="203.0769230769231" y="273.8461538461538" text-anchor="middle" style="font-size: 12px;">35</text><text class="label" x="270.7692307692308" y="286.7692307692308" text-anchor="middle" style="font-size: 12px;">7</text><text class="label" x="338.46153846153845" y="286.7692307692308" text-anchor="middle" style="font-size: 12px;">7</text><text class="label" x="406.1538461538462" y="283.53846153846155" text-anchor="middle" style="font-size: 12px;">14</text><text class="label" x="473.8461538461538" y="273.8461538461538" text-anchor="middle" style="font-size: 12px;">35</text><text class="label" x="541.5384615384615" y="290" text-anchor="middle" style="font-size: 12px;">0</text><text class="label" x="609.2307692307692" y="286.7692307692308" text-anchor="middle" style="font-size: 12px;">7</text><text class="label" x="676.9230769230769" y="290" text-anchor="middle" style="font-size: 12px;">0</text><text class="label" x="744.6153846153846" y="286.7692307692308" text-anchor="middle" style="font-size: 12px;">7</text><text class="label" x="812.3076923076924" y="41.69230769230768" text-anchor="middle" style="font-size: 12px;">538</text><text class="label" x="880" y="264.15384615384613" text-anchor="middle" style="font-size: 12px;">56</text><g class="x-axis" transform="translate(0,300)" fill="none" font-size="10" font-family="sans-serif" text-anchor="middle"><path class="domain" stroke="currentColor" d="M0.5,-300V0.5H880.5V-300"></path><g class="tick" opacity="1" transform="translate(0.5,0)"><line stroke="currentColor" y2="-300"></line><text fill="currentColor" y="3" dy=".15em" style="text-anchor: end;" dx="-.8em" transform="rotate(-45)">Wed 25</text></g><g class="tick" opacity="1" transform="translate(68.1923076923077,0)"><line stroke="currentColor" y2="-300"></line><text fill="currentColor" y="3" dy=".15em" style="text-anchor: end;" dx="-.8em" transform="rotate(-45)">Thu 26</text></g><g class="tick" opacity="1" transform="translate(135.8846153846154,0)"><line stroke="currentColor" y2="-300"></line><text fill="currentColor" y="3" dy=".15em" style="text-anchor: end;" dx="-.8em" transform="rotate(-45)">Fri 27</text></g><g class="tick" opacity="1" transform="translate(203.5769230769231,0)"><line stroke="currentColor" y2="-300"></line><text fill="currentColor" y="3" dy=".15em" style="text-anchor: end;" dx="-.8em" transform="rotate(-45)">Sat 28</text></g><g class="tick" opacity="1" transform="translate(271.2692307692308,0)"><line stroke="currentColor" y2="-300"></line><text fill="currentColor" y="3" dy=".15em" style="text-anchor: end;" dx="-.8em" transform="rotate(-45)">Dec 29</text></g><g class="tick" opacity="1" transform="translate(338.96153846153845,0)"><line stroke="currentColor" y2="-300"></line><text fill="currentColor" y="3" dy=".15em" style="text-anchor: end;" dx="-.8em" transform="rotate(-45)">Mon 30</text></g><g class="tick" opacity="1" transform="translate(406.6538461538462,0)"><line stroke="currentColor" y2="-300"></line><text fill="currentColor" y="3" dy=".15em" style="text-anchor: end;" dx="-.8em" transform="rotate(-45)">Tue 31</text></g><g class="tick" opacity="1" transform="translate(474.3461538461538,0)"><line stroke="currentColor" y2="-300"></line><text fill="currentColor" y="3" dy=".15em" style="text-anchor: end;" dx="-.8em" transform="rotate(-45)">2025</text></g><g class="tick" opacity="1" transform="translate(542.0384615384615,0)"><line stroke="currentColor" y2="-300"></line><text fill="currentColor" y="3" dy=".15em" style="text-anchor: end;" dx="-.8em" transform="rotate(-45)">Thu 02</text></g><g class="tick" opacity="1" transform="translate(609.7307692307692,0)"><line stroke="currentColor" y2="-300"></line><text fill="currentColor" y="3" dy=".15em" style="text-anchor: end;" dx="-.8em" transform="rotate(-45)">Fri 03</text></g><g class="tick" opacity="1" transform="translate(677.4230769230769,0)"><line stroke="currentColor" y2="-300"></line><text fill="currentColor" y="3" dy=".15em" style="text-anchor: end;" dx="-.8em" transform="rotate(-45)">Sat 04</text></g><g class="tick" opacity="1" transform="translate(745.1153846153846,0)"><line stroke="currentColor" y2="-300"></line><text fill="currentColor" y="3" dy=".15em" style="text-anchor: end;" dx="-.8em" transform="rotate(-45)">Jan 05</text></g><g class="tick" opacity="1" transform="translate(812.8076923076924,0)"><line stroke="currentColor" y2="-300"></line><text fill="currentColor" y="3" dy=".15em" style="text-anchor: end;" dx="-.8em" transform="rotate(-45)">Mon 06</text></g><g class="tick" opacity="1" transform="translate(880.5,0)"><line stroke="currentColor" y2="-300"></line><text fill="currentColor" y="3" dy=".15em" style="text-anchor: end;" dx="-.8em" transform="rotate(-45)">Tue 07</text></g></g><g class="y-axis" fill="none" font-size="10" font-family="sans-serif" text-anchor="end"><path class="domain" stroke="currentColor" d="M880,300.5H0.5V0.5H880"></path><g class="tick" opacity="1" transform="translate(0,300.5)"><line stroke="currentColor" x2="880"></line><text fill="currentColor" x="-3" dy="0.32em">0</text></g><g class="tick" opacity="1" transform="translate(0,254.34615384615384)"><line stroke="currentColor" x2="880"></line><text fill="currentColor" x="-3" dy="0.32em">100</text></g><g class="tick" opacity="1" transform="translate(0,208.19230769230768)"><line stroke="currentColor" x2="880"></line><text fill="currentColor" x="-3" dy="0.32em">200</text></g><g class="tick" opacity="1" transform="translate(0,162.03846153846152)"><line stroke="currentColor" x2="880"></line><text fill="currentColor" x="-3" dy="0.32em">300</text></g><g class="tick" opacity="1" transform="translate(0,115.88461538461537)"><line stroke="currentColor" x2="880"></line><text fill="currentColor" x="-3" dy="0.32em">400</text></g><g class="tick" opacity="1" transform="translate(0,69.73076923076921)"><line stroke="currentColor" x2="880"></line><text fill="currentColor" x="-3" dy="0.32em">500</text></g><g class="tick" opacity="1" transform="translate(0,23.576923076923062)"><line stroke="currentColor" x2="880"></line><text fill="currentColor" x="-3" dy="0.32em">600</text></g></g><style>
    .grid line {
      stroke: #e0e0e0;
      stroke-opacity: 0.7;
      shape-rendering: crispEdges;
    }
    .grid path {
      stroke-width: 0;
    }
    .dot:hover {
      r: 6;
    }
    text {
      font-family: Arial, sans-serif;
    }
    .x-axis path, .y-axis path {
      stroke: #ccc;
    }
    .x-axis text, .y-axis text {
      fill: #666;
    }
  </style></g></svg>