<svg xmlns="http://www.w3.org/2000/svg" width="1000" height="400"><g transform="translate(60,40)"><text x="440" y="-20" text-anchor="middle" style="font-size: 16px; font-weight: bold;">最近14天使用次数趋势</text><g class="grid" transform="translate(0,300)" fill="none" font-size="10" font-family="sans-serif" text-anchor="middle"><path class="domain" stroke="currentColor" d="M0.5,-300V0.5H880.5V-300"></path><g class="tick" opacity="1" transform="translate(42.404761904761905,0)"><line stroke="currentColor" y2="-300"></line><text fill="currentColor" y="3" dy="0.71em">Wed 20</text></g><g class="tick" opacity="1" transform="translate(105.26190476190476,0)"><line stroke="currentColor" y2="-300"></line><text fill="currentColor" y="3" dy="0.71em">Thu 21</text></g><g class="tick" opacity="1" transform="translate(168.11904761904762,0)"><line stroke="currentColor" y2="-300"></line><text fill="currentColor" y="3" dy="0.71em">Fri 22</text></g><g class="tick" opacity="1" transform="translate(230.97619047619048,0)"><line stroke="currentColor" y2="-300"></line><text fill="currentColor" y="3" dy="0.71em">Sat 23</text></g><g class="tick" opacity="1" transform="translate(293.8333333333333,0)"><line stroke="currentColor" y2="-300"></line><text fill="currentColor" y="3" dy="0.71em">Nov 24</text></g><g class="tick" opacity="1" transform="translate(356.6904761904762,0)"><line stroke="currentColor" y2="-300"></line><text fill="currentColor" y="3" dy="0.71em">Mon 25</text></g><g class="tick" opacity="1" transform="translate(419.54761904761904,0)"><line stroke="currentColor" y2="-300"></line><text fill="currentColor" y="3" dy="0.71em">Tue 26</text></g><g class="tick" opacity="1" transform="translate(482.4047619047619,0)"><line stroke="currentColor" y2="-300"></line><text fill="currentColor" y="3" dy="0.71em">Wed 27</text></g><g class="tick" opacity="1" transform="translate(545.2619047619048,0)"><line stroke="currentColor" y2="-300"></line><text fill="currentColor" y="3" dy="0.71em">Thu 28</text></g><g class="tick" opacity="1" transform="translate(608.1190476190476,0)"><line stroke="currentColor" y2="-300"></line><text fill="currentColor" y="3" dy="0.71em">Fri 29</text></g><g class="tick" opacity="1" transform="translate(670.9761904761905,0)"><line stroke="currentColor" y2="-300"></line><text fill="currentColor" y="3" dy="0.71em">Sat 30</text></g><g class="tick" opacity="1" transform="translate(733.8333333333334,0)"><line stroke="currentColor" y2="-300"></line><text fill="currentColor" y="3" dy="0.71em">December</text></g><g class="tick" opacity="1" transform="translate(796.6904761904761,0)"><line stroke="currentColor" y2="-300"></line><text fill="currentColor" y="3" dy="0.71em">Mon 02</text></g><g class="tick" opacity="1" transform="translate(859.547619047619,0)"><line stroke="currentColor" y2="-300"></line><text fill="currentColor" y="3" dy="0.71em">Tue 03</text></g></g><g class="grid" fill="none" font-size="10" font-family="sans-serif" text-anchor="end"><path class="domain" stroke="currentColor" d="M880,300.5H0.5V0.5H880"></path><g class="tick" opacity="1" transform="translate(0,150.5)"><line stroke="currentColor" x2="880"></line><text fill="currentColor" x="-3" dy="0.32em">0</text></g></g><path class="area" d="M0,150C20.952,150,41.905,150,62.857,150C83.81,150,104.762,150,125.714,150C146.667,150,167.619,150,188.571,150C209.524,150,230.476,150,251.429,150C272.381,150,293.333,150,314.286,150C335.238,150,356.19,150,377.143,150C398.095,150,419.048,150,440,150C460.952,150,481.905,150,502.857,150C523.81,150,544.762,150,565.714,150C586.667,150,607.619,150,628.571,150C649.524,150,670.476,150,691.429,150C712.381,150,733.333,150,754.286,150C796.19,150,838.095,150,880,150L880,300C838.095,300,796.19,300,754.286,300C733.333,300,712.381,300,691.429,300C670.476,300,649.524,300,628.571,300C607.619,300,586.667,300,565.714,300C544.762,300,523.81,300,502.857,300C481.905,300,460.952,300,440,300C419.048,300,398.095,300,377.143,300C356.19,300,335.238,300,314.286,300C293.333,300,272.381,300,251.429,300C230.476,300,209.524,300,188.571,300C167.619,300,146.667,300,125.714,300C104.762,300,83.81,300,62.857,300C41.905,300,20.952,300,0,300Z" style="fill: url(#area-gradient); opacity: 0.3;"></path><path class="line" d="M0,150C20.952,150,41.905,150,62.857,150C83.81,150,104.762,150,125.714,150C146.667,150,167.619,150,188.571,150C209.524,150,230.476,150,251.429,150C272.381,150,293.333,150,314.286,150C335.238,150,356.19,150,377.143,150C398.095,150,419.048,150,440,150C460.952,150,481.905,150,502.857,150C523.81,150,544.762,150,565.714,150C586.667,150,607.619,150,628.571,150C649.524,150,670.476,150,691.429,150C712.381,150,733.333,150,754.286,150C796.19,150,838.095,150,880,150" style="fill: none; stroke: #2196F3; stroke-width: 2px;"></path><circle class="dot" cx="0" cy="150" r="4" style="fill: #2196F3; stroke: #fff; stroke-width: 2px;"></circle><circle class="dot" cx="62.857142857142854" cy="150" r="4" style="fill: #2196F3; stroke: #fff; stroke-width: 2px;"></circle><circle class="dot" cx="125.71428571428571" cy="150" r="4" style="fill: #2196F3; stroke: #fff; stroke-width: 2px;"></circle><circle class="dot" cx="188.57142857142856" cy="150" r="4" style="fill: #2196F3; stroke: #fff; stroke-width: 2px;"></circle><circle class="dot" cx="251.42857142857142" cy="150" r="4" style="fill: #2196F3; stroke: #fff; stroke-width: 2px;"></circle><circle class="dot" cx="314.2857142857143" cy="150" r="4" style="fill: #2196F3; stroke: #fff; stroke-width: 2px;"></circle><circle class="dot" cx="377.1428571428571" cy="150" r="4" style="fill: #2196F3; stroke: #fff; stroke-width: 2px;"></circle><circle class="dot" cx="440" cy="150" r="4" style="fill: #2196F3; stroke: #fff; stroke-width: 2px;"></circle><circle class="dot" cx="502.85714285714283" cy="150" r="4" style="fill: #2196F3; stroke: #fff; stroke-width: 2px;"></circle><circle class="dot" cx="565.7142857142858" cy="150" r="4" style="fill: #2196F3; stroke: #fff; stroke-width: 2px;"></circle><circle class="dot" cx="628.5714285714286" cy="150" r="4" style="fill: #2196F3; stroke: #fff; stroke-width: 2px;"></circle><circle class="dot" cx="691.4285714285714" cy="150" r="4" style="fill: #2196F3; stroke: #fff; stroke-width: 2px;"></circle><circle class="dot" cx="754.2857142857142" cy="150" r="4" style="fill: #2196F3; stroke: #fff; stroke-width: 2px;"></circle><circle class="dot" cx="880" cy="150" r="4" style="fill: #2196F3; stroke: #fff; stroke-width: 2px;"></circle><text class="label" x="0" y="140" text-anchor="middle" style="font-size: 12px;">0</text><text class="label" x="62.857142857142854" y="140" text-anchor="middle" style="font-size: 12px;">0</text><text class="label" x="125.71428571428571" y="140" text-anchor="middle" style="font-size: 12px;">0</text><text class="label" x="188.57142857142856" y="140" text-anchor="middle" style="font-size: 12px;">0</text><text class="label" x="251.42857142857142" y="140" text-anchor="middle" style="font-size: 12px;">0</text><text class="label" x="314.2857142857143" y="140" text-anchor="middle" style="font-size: 12px;">0</text><text class="label" x="377.1428571428571" y="140" text-anchor="middle" style="font-size: 12px;">0</text><text class="label" x="440" y="140" text-anchor="middle" style="font-size: 12px;">0</text><text class="label" x="502.85714285714283" y="140" text-anchor="middle" style="font-size: 12px;">0</text><text class="label" x="565.7142857142858" y="140" text-anchor="middle" style="font-size: 12px;">0</text><text class="label" x="628.5714285714286" y="140" text-anchor="middle" style="font-size: 12px;">0</text><text class="label" x="691.4285714285714" y="140" text-anchor="middle" style="font-size: 12px;">0</text><text class="label" x="754.2857142857142" y="140" text-anchor="middle" style="font-size: 12px;">0</text><text class="label" x="880" y="140" text-anchor="middle" style="font-size: 12px;">0</text><g class="x-axis" transform="translate(0,300)" fill="none" font-size="10" font-family="sans-serif" text-anchor="middle"><path class="domain" stroke="currentColor" d="M0.5,-300V0.5H880.5V-300"></path><g class="tick" opacity="1" transform="translate(42.404761904761905,0)"><line stroke="currentColor" y2="-300"></line><text fill="currentColor" y="3" dy=".15em" style="text-anchor: end;" dx="-.8em" transform="rotate(-45)">Wed 20</text></g><g class="tick" opacity="1" transform="translate(105.26190476190476,0)"><line stroke="currentColor" y2="-300"></line><text fill="currentColor" y="3" dy=".15em" style="text-anchor: end;" dx="-.8em" transform="rotate(-45)">Thu 21</text></g><g class="tick" opacity="1" transform="translate(168.11904761904762,0)"><line stroke="currentColor" y2="-300"></line><text fill="currentColor" y="3" dy=".15em" style="text-anchor: end;" dx="-.8em" transform="rotate(-45)">Fri 22</text></g><g class="tick" opacity="1" transform="translate(230.97619047619048,0)"><line stroke="currentColor" y2="-300"></line><text fill="currentColor" y="3" dy=".15em" style="text-anchor: end;" dx="-.8em" transform="rotate(-45)">Sat 23</text></g><g class="tick" opacity="1" transform="translate(293.8333333333333,0)"><line stroke="currentColor" y2="-300"></line><text fill="currentColor" y="3" dy=".15em" style="text-anchor: end;" dx="-.8em" transform="rotate(-45)">Nov 24</text></g><g class="tick" opacity="1" transform="translate(356.6904761904762,0)"><line stroke="currentColor" y2="-300"></line><text fill="currentColor" y="3" dy=".15em" style="text-anchor: end;" dx="-.8em" transform="rotate(-45)">Mon 25</text></g><g class="tick" opacity="1" transform="translate(419.54761904761904,0)"><line stroke="currentColor" y2="-300"></line><text fill="currentColor" y="3" dy=".15em" style="text-anchor: end;" dx="-.8em" transform="rotate(-45)">Tue 26</text></g><g class="tick" opacity="1" transform="translate(482.4047619047619,0)"><line stroke="currentColor" y2="-300"></line><text fill="currentColor" y="3" dy=".15em" style="text-anchor: end;" dx="-.8em" transform="rotate(-45)">Wed 27</text></g><g class="tick" opacity="1" transform="translate(545.2619047619048,0)"><line stroke="currentColor" y2="-300"></line><text fill="currentColor" y="3" dy=".15em" style="text-anchor: end;" dx="-.8em" transform="rotate(-45)">Thu 28</text></g><g class="tick" opacity="1" transform="translate(608.1190476190476,0)"><line stroke="currentColor" y2="-300"></line><text fill="currentColor" y="3" dy=".15em" style="text-anchor: end;" dx="-.8em" transform="rotate(-45)">Fri 29</text></g><g class="tick" opacity="1" transform="translate(670.9761904761905,0)"><line stroke="currentColor" y2="-300"></line><text fill="currentColor" y="3" dy=".15em" style="text-anchor: end;" dx="-.8em" transform="rotate(-45)">Sat 30</text></g><g class="tick" opacity="1" transform="translate(733.8333333333334,0)"><line stroke="currentColor" y2="-300"></line><text fill="currentColor" y="3" dy=".15em" style="text-anchor: end;" dx="-.8em" transform="rotate(-45)">December</text></g><g class="tick" opacity="1" transform="translate(796.6904761904761,0)"><line stroke="currentColor" y2="-300"></line><text fill="currentColor" y="3" dy=".15em" style="text-anchor: end;" dx="-.8em" transform="rotate(-45)">Mon 02</text></g><g class="tick" opacity="1" transform="translate(859.547619047619,0)"><line stroke="currentColor" y2="-300"></line><text fill="currentColor" y="3" dy=".15em" style="text-anchor: end;" dx="-.8em" transform="rotate(-45)">Tue 03</text></g></g><g class="y-axis" fill="none" font-size="10" font-family="sans-serif" text-anchor="end"><path class="domain" stroke="currentColor" d="M880,300.5H0.5V0.5H880"></path><g class="tick" opacity="1" transform="translate(0,150.5)"><line stroke="currentColor" x2="880"></line><text fill="currentColor" x="-3" dy="0.32em">0</text></g></g><style>
    .grid line {
      stroke: #e0e0e0;
      stroke-opacity: 0.7;
      shape-rendering: crispEdges;
    }
    .grid path {
      stroke-width: 0;
    }
    .dot:hover {
      r: 6;
    }
    text {
      font-family: Arial, sans-serif;
    }
    .x-axis path, .y-axis path {
      stroke: #ccc;
    }
    .x-axis text, .y-axis text {
      fill: #666;
    }
  </style></g></svg>