<svg xmlns="http://www.w3.org/2000/svg" width="1000" height="400"><g transform="translate(60,40)"><text x="440" y="-20" text-anchor="middle" style="font-size: 16px; font-weight: bold;">最近14天使用次数趋势</text><g class="grid" transform="translate(0,300)" fill="none" font-size="10" font-family="sans-serif" text-anchor="middle"><path class="domain" stroke="currentColor" d="M0.5,-300V0.5H880.5V-300"></path><g class="tick" opacity="1" transform="translate(0.5,0)"><line stroke="currentColor" y2="-300"></line><text fill="currentColor" y="3" dy="0.71em">Thu 06</text></g><g class="tick" opacity="1" transform="translate(88.5,0)"><line stroke="currentColor" y2="-300"></line><text fill="currentColor" y="3" dy="0.71em">Fri 07</text></g><g class="tick" opacity="1" transform="translate(176.5,0)"><line stroke="currentColor" y2="-300"></line><text fill="currentColor" y="3" dy="0.71em">Sat 08</text></g><g class="tick" opacity="1" transform="translate(264.5,0)"><line stroke="currentColor" y2="-300"></line><text fill="currentColor" y="3" dy="0.71em">Feb 09</text></g><g class="tick" opacity="1" transform="translate(352.5,0)"><line stroke="currentColor" y2="-300"></line><text fill="currentColor" y="3" dy="0.71em">Mon 10</text></g><g class="tick" opacity="1" transform="translate(440.5,0)"><line stroke="currentColor" y2="-300"></line><text fill="currentColor" y="3" dy="0.71em">Tue 11</text></g><g class="tick" opacity="1" transform="translate(528.5,0)"><line stroke="currentColor" y2="-300"></line><text fill="currentColor" y="3" dy="0.71em">Wed 12</text></g><g class="tick" opacity="1" transform="translate(616.5,0)"><line stroke="currentColor" y2="-300"></line><text fill="currentColor" y="3" dy="0.71em">Thu 13</text></g><g class="tick" opacity="1" transform="translate(704.5,0)"><line stroke="currentColor" y2="-300"></line><text fill="currentColor" y="3" dy="0.71em">Fri 14</text></g><g class="tick" opacity="1" transform="translate(792.5,0)"><line stroke="currentColor" y2="-300"></line><text fill="currentColor" y="3" dy="0.71em">Sat 15</text></g><g class="tick" opacity="1" transform="translate(880.5,0)"><line stroke="currentColor" y2="-300"></line><text fill="currentColor" y="3" dy="0.71em">Feb 16</text></g></g><g class="grid" fill="none" font-size="10" font-family="sans-serif" text-anchor="end"><path class="domain" stroke="currentColor" d="M880,300.5H0.5V0.5H880"></path><g class="tick" opacity="1" transform="translate(0,300.5)"><line stroke="currentColor" x2="880"></line><text fill="currentColor" x="-3" dy="0.32em">0</text></g><g class="tick" opacity="1" transform="translate(0,225.5)"><line stroke="currentColor" x2="880"></line><text fill="currentColor" x="-3" dy="0.32em">20</text></g><g class="tick" opacity="1" transform="translate(0,150.5)"><line stroke="currentColor" x2="880"></line><text fill="currentColor" x="-3" dy="0.32em">40</text></g><g class="tick" opacity="1" transform="translate(0,75.5)"><line stroke="currentColor" x2="880"></line><text fill="currentColor" x="-3" dy="0.32em">60</text></g><g class="tick" opacity="1" transform="translate(0,0.5)"><line stroke="currentColor" x2="880"></line><text fill="currentColor" x="-3" dy="0.32em">80</text></g></g><path class="area" d="M0,300C29.333,181.875,58.667,63.75,88,63.75C117.333,63.75,146.667,273.75,176,273.75C205.333,273.75,234.667,221.25,264,221.25C293.333,221.25,322.667,270,352,270C381.333,270,410.667,225,440,210C469.333,195,498.667,180,528,180C557.333,180,586.667,232.5,616,232.5C645.333,232.5,674.667,63.75,704,63.75C733.333,63.75,762.667,240,792,255C821.333,270,850.667,273.75,880,277.5L880,300C850.667,300,821.333,300,792,300C762.667,300,733.333,300,704,300C674.667,300,645.333,300,616,300C586.667,300,557.333,300,528,300C498.667,300,469.333,300,440,300C410.667,300,381.333,300,352,300C322.667,300,293.333,300,264,300C234.667,300,205.333,300,176,300C146.667,300,117.333,300,88,300C58.667,300,29.333,300,0,300Z" style="fill: url(#area-gradient); opacity: 0.3;"></path><path class="line" d="M0,300C29.333,181.875,58.667,63.75,88,63.75C117.333,63.75,146.667,273.75,176,273.75C205.333,273.75,234.667,221.25,264,221.25C293.333,221.25,322.667,270,352,270C381.333,270,410.667,225,440,210C469.333,195,498.667,180,528,180C557.333,180,586.667,232.5,616,232.5C645.333,232.5,674.667,63.75,704,63.75C733.333,63.75,762.667,240,792,255C821.333,270,850.667,273.75,880,277.5" style="fill: none; stroke: #2196F3; stroke-width: 2px;"></path><circle class="dot" cx="0" cy="300" r="4" style="fill: #2196F3; stroke: #fff; stroke-width: 2px;"></circle><circle class="dot" cx="88" cy="63.75000000000001" r="4" style="fill: #2196F3; stroke: #fff; stroke-width: 2px;"></circle><circle class="dot" cx="176" cy="273.75" r="4" style="fill: #2196F3; stroke: #fff; stroke-width: 2px;"></circle><circle class="dot" cx="264" cy="221.25" r="4" style="fill: #2196F3; stroke: #fff; stroke-width: 2px;"></circle><circle class="dot" cx="352" cy="270" r="4" style="fill: #2196F3; stroke: #fff; stroke-width: 2px;"></circle><circle class="dot" cx="440" cy="210" r="4" style="fill: #2196F3; stroke: #fff; stroke-width: 2px;"></circle><circle class="dot" cx="528" cy="180" r="4" style="fill: #2196F3; stroke: #fff; stroke-width: 2px;"></circle><circle class="dot" cx="616" cy="232.5" r="4" style="fill: #2196F3; stroke: #fff; stroke-width: 2px;"></circle><circle class="dot" cx="704" cy="63.75000000000001" r="4" style="fill: #2196F3; stroke: #fff; stroke-width: 2px;"></circle><circle class="dot" cx="792" cy="255" r="4" style="fill: #2196F3; stroke: #fff; stroke-width: 2px;"></circle><circle class="dot" cx="880" cy="277.5" r="4" style="fill: #2196F3; stroke: #fff; stroke-width: 2px;"></circle><text class="label" x="0" y="290" text-anchor="middle" style="font-size: 12px;">0</text><text class="label" x="88" y="53.75000000000001" text-anchor="middle" style="font-size: 12px;">63</text><text class="label" x="176" y="263.75" text-anchor="middle" style="font-size: 12px;">7</text><text class="label" x="264" y="211.25" text-anchor="middle" style="font-size: 12px;">21</text><text class="label" x="352" y="260" text-anchor="middle" style="font-size: 12px;">8</text><text class="label" x="440" y="200" text-anchor="middle" style="font-size: 12px;">24</text><text class="label" x="528" y="170" text-anchor="middle" style="font-size: 12px;">32</text><text class="label" x="616" y="222.5" text-anchor="middle" style="font-size: 12px;">18</text><text class="label" x="704" y="53.75000000000001" text-anchor="middle" style="font-size: 12px;">63</text><text class="label" x="792" y="245" text-anchor="middle" style="font-size: 12px;">12</text><text class="label" x="880" y="267.5" text-anchor="middle" style="font-size: 12px;">6</text><g class="x-axis" transform="translate(0,300)" fill="none" font-size="10" font-family="sans-serif" text-anchor="middle"><path class="domain" stroke="currentColor" d="M0.5,-300V0.5H880.5V-300"></path><g class="tick" opacity="1" transform="translate(0.5,0)"><line stroke="currentColor" y2="-300"></line><text fill="currentColor" y="3" dy=".15em" style="text-anchor: end;" dx="-.8em" transform="rotate(-45)">Thu 06</text></g><g class="tick" opacity="1" transform="translate(88.5,0)"><line stroke="currentColor" y2="-300"></line><text fill="currentColor" y="3" dy=".15em" style="text-anchor: end;" dx="-.8em" transform="rotate(-45)">Fri 07</text></g><g class="tick" opacity="1" transform="translate(176.5,0)"><line stroke="currentColor" y2="-300"></line><text fill="currentColor" y="3" dy=".15em" style="text-anchor: end;" dx="-.8em" transform="rotate(-45)">Sat 08</text></g><g class="tick" opacity="1" transform="translate(264.5,0)"><line stroke="currentColor" y2="-300"></line><text fill="currentColor" y="3" dy=".15em" style="text-anchor: end;" dx="-.8em" transform="rotate(-45)">Feb 09</text></g><g class="tick" opacity="1" transform="translate(352.5,0)"><line stroke="currentColor" y2="-300"></line><text fill="currentColor" y="3" dy=".15em" style="text-anchor: end;" dx="-.8em" transform="rotate(-45)">Mon 10</text></g><g class="tick" opacity="1" transform="translate(440.5,0)"><line stroke="currentColor" y2="-300"></line><text fill="currentColor" y="3" dy=".15em" style="text-anchor: end;" dx="-.8em" transform="rotate(-45)">Tue 11</text></g><g class="tick" opacity="1" transform="translate(528.5,0)"><line stroke="currentColor" y2="-300"></line><text fill="currentColor" y="3" dy=".15em" style="text-anchor: end;" dx="-.8em" transform="rotate(-45)">Wed 12</text></g><g class="tick" opacity="1" transform="translate(616.5,0)"><line stroke="currentColor" y2="-300"></line><text fill="currentColor" y="3" dy=".15em" style="text-anchor: end;" dx="-.8em" transform="rotate(-45)">Thu 13</text></g><g class="tick" opacity="1" transform="translate(704.5,0)"><line stroke="currentColor" y2="-300"></line><text fill="currentColor" y="3" dy=".15em" style="text-anchor: end;" dx="-.8em" transform="rotate(-45)">Fri 14</text></g><g class="tick" opacity="1" transform="translate(792.5,0)"><line stroke="currentColor" y2="-300"></line><text fill="currentColor" y="3" dy=".15em" style="text-anchor: end;" dx="-.8em" transform="rotate(-45)">Sat 15</text></g><g class="tick" opacity="1" transform="translate(880.5,0)"><line stroke="currentColor" y2="-300"></line><text fill="currentColor" y="3" dy=".15em" style="text-anchor: end;" dx="-.8em" transform="rotate(-45)">Feb 16</text></g></g><g class="y-axis" fill="none" font-size="10" font-family="sans-serif" text-anchor="end"><path class="domain" stroke="currentColor" d="M880,300.5H0.5V0.5H880"></path><g class="tick" opacity="1" transform="translate(0,300.5)"><line stroke="currentColor" x2="880"></line><text fill="currentColor" x="-3" dy="0.32em">0</text></g><g class="tick" opacity="1" transform="translate(0,225.5)"><line stroke="currentColor" x2="880"></line><text fill="currentColor" x="-3" dy="0.32em">20</text></g><g class="tick" opacity="1" transform="translate(0,150.5)"><line stroke="currentColor" x2="880"></line><text fill="currentColor" x="-3" dy="0.32em">40</text></g><g class="tick" opacity="1" transform="translate(0,75.5)"><line stroke="currentColor" x2="880"></line><text fill="currentColor" x="-3" dy="0.32em">60</text></g><g class="tick" opacity="1" transform="translate(0,0.5)"><line stroke="currentColor" x2="880"></line><text fill="currentColor" x="-3" dy="0.32em">80</text></g></g><style>
    .grid line {
      stroke: #e0e0e0;
      stroke-opacity: 0.7;
      shape-rendering: crispEdges;
    }
    .grid path {
      stroke-width: 0;
    }
    .dot:hover {
      r: 6;
    }
    text {
      font-family: Arial, sans-serif;
    }
    .x-axis path, .y-axis path {
      stroke: #ccc;
    }
    .x-axis text, .y-axis text {
      fill: #666;
    }
  </style></g></svg>