<svg xmlns="http://www.w3.org/2000/svg" width="1000" height="400"><g transform="translate(60,40)"><text x="440" y="-20" text-anchor="middle" style="font-size: 16px; font-weight: bold;">最近14天使用次数趋势</text><g class="grid" transform="translate(0,300)" fill="none" font-size="10" font-family="sans-serif" text-anchor="middle"><path class="domain" stroke="currentColor" d="M0.5,-300V0.5H880.5V-300"></path><g class="tick" opacity="1" transform="translate(0.5,0)"><line stroke="currentColor" y2="-300"></line><text fill="currentColor" y="3" dy="0.71em">Wed 11</text></g><g class="tick" opacity="1" transform="translate(147.16666666666666,0)"><line stroke="currentColor" y2="-300"></line><text fill="currentColor" y="3" dy="0.71em">Thu 12</text></g><g class="tick" opacity="1" transform="translate(293.8333333333333,0)"><line stroke="currentColor" y2="-300"></line><text fill="currentColor" y="3" dy="0.71em">Fri 13</text></g><g class="tick" opacity="1" transform="translate(440.5,0)"><line stroke="currentColor" y2="-300"></line><text fill="currentColor" y="3" dy="0.71em">Sat 14</text></g><g class="tick" opacity="1" transform="translate(587.1666666666666,0)"><line stroke="currentColor" y2="-300"></line><text fill="currentColor" y="3" dy="0.71em">Dec 15</text></g><g class="tick" opacity="1" transform="translate(733.8333333333334,0)"><line stroke="currentColor" y2="-300"></line><text fill="currentColor" y="3" dy="0.71em">Mon 16</text></g><g class="tick" opacity="1" transform="translate(880.5,0)"><line stroke="currentColor" y2="-300"></line><text fill="currentColor" y="3" dy="0.71em">Tue 17</text></g></g><g class="grid" fill="none" font-size="10" font-family="sans-serif" text-anchor="end"><path class="domain" stroke="currentColor" d="M880,300.5H0.5V0.5H880"></path><g class="tick" opacity="1" transform="translate(0,300.5)"><line stroke="currentColor" x2="880"></line><text fill="currentColor" x="-3" dy="0.32em">0</text></g><g class="tick" opacity="1" transform="translate(0,233.83333333333334)"><line stroke="currentColor" x2="880"></line><text fill="currentColor" x="-3" dy="0.32em">100</text></g><g class="tick" opacity="1" transform="translate(0,167.16666666666669)"><line stroke="currentColor" x2="880"></line><text fill="currentColor" x="-3" dy="0.32em">200</text></g><g class="tick" opacity="1" transform="translate(0,100.50000000000001)"><line stroke="currentColor" x2="880"></line><text fill="currentColor" x="-3" dy="0.32em">300</text></g><g class="tick" opacity="1" transform="translate(0,33.83333333333335)"><line stroke="currentColor" x2="880"></line><text fill="currentColor" x="-3" dy="0.32em">400</text></g></g><path class="area" d="M0,300C48.889,300,97.778,300,146.667,300C195.556,300,244.444,300,293.333,300C342.222,300,391.111,286.889,440,260.667C488.889,234.444,537.778,62,586.667,62C635.556,62,684.444,86.111,733.333,122.667C782.222,159.222,831.111,220.278,880,281.333L880,300C831.111,300,782.222,300,733.333,300C684.444,300,635.556,300,586.667,300C537.778,300,488.889,300,440,300C391.111,300,342.222,300,293.333,300C244.444,300,195.556,300,146.667,300C97.778,300,48.889,300,0,300Z" style="fill: url(#area-gradient); opacity: 0.3;"></path><path class="line" d="M0,300C48.889,300,97.778,300,146.667,300C195.556,300,244.444,300,293.333,300C342.222,300,391.111,286.889,440,260.667C488.889,234.444,537.778,62,586.667,62C635.556,62,684.444,86.111,733.333,122.667C782.222,159.222,831.111,220.278,880,281.333" style="fill: none; stroke: #2196F3; stroke-width: 2px;"></path><circle class="dot" cx="0" cy="300" r="4" style="fill: #2196F3; stroke: #fff; stroke-width: 2px;"></circle><circle class="dot" cx="146.66666666666666" cy="300" r="4" style="fill: #2196F3; stroke: #fff; stroke-width: 2px;"></circle><circle class="dot" cx="293.3333333333333" cy="300" r="4" style="fill: #2196F3; stroke: #fff; stroke-width: 2px;"></circle><circle class="dot" cx="440" cy="260.66666666666663" r="4" style="fill: #2196F3; stroke: #fff; stroke-width: 2px;"></circle><circle class="dot" cx="586.6666666666666" cy="62" r="4" style="fill: #2196F3; stroke: #fff; stroke-width: 2px;"></circle><circle class="dot" cx="733.3333333333334" cy="122.66666666666666" r="4" style="fill: #2196F3; stroke: #fff; stroke-width: 2px;"></circle><circle class="dot" cx="880" cy="281.33333333333337" r="4" style="fill: #2196F3; stroke: #fff; stroke-width: 2px;"></circle><text class="label" x="0" y="290" text-anchor="middle" style="font-size: 12px;">0</text><text class="label" x="146.66666666666666" y="290" text-anchor="middle" style="font-size: 12px;">0</text><text class="label" x="293.3333333333333" y="290" text-anchor="middle" style="font-size: 12px;">0</text><text class="label" x="440" y="250.66666666666663" text-anchor="middle" style="font-size: 12px;">59</text><text class="label" x="586.6666666666666" y="52" text-anchor="middle" style="font-size: 12px;">357</text><text class="label" x="733.3333333333334" y="112.66666666666666" text-anchor="middle" style="font-size: 12px;">266</text><text class="label" x="880" y="271.33333333333337" text-anchor="middle" style="font-size: 12px;">28</text><g class="x-axis" transform="translate(0,300)" fill="none" font-size="10" font-family="sans-serif" text-anchor="middle"><path class="domain" stroke="currentColor" d="M0.5,-300V0.5H880.5V-300"></path><g class="tick" opacity="1" transform="translate(0.5,0)"><line stroke="currentColor" y2="-300"></line><text fill="currentColor" y="3" dy=".15em" style="text-anchor: end;" dx="-.8em" transform="rotate(-45)">Wed 11</text></g><g class="tick" opacity="1" transform="translate(147.16666666666666,0)"><line stroke="currentColor" y2="-300"></line><text fill="currentColor" y="3" dy=".15em" style="text-anchor: end;" dx="-.8em" transform="rotate(-45)">Thu 12</text></g><g class="tick" opacity="1" transform="translate(293.8333333333333,0)"><line stroke="currentColor" y2="-300"></line><text fill="currentColor" y="3" dy=".15em" style="text-anchor: end;" dx="-.8em" transform="rotate(-45)">Fri 13</text></g><g class="tick" opacity="1" transform="translate(440.5,0)"><line stroke="currentColor" y2="-300"></line><text fill="currentColor" y="3" dy=".15em" style="text-anchor: end;" dx="-.8em" transform="rotate(-45)">Sat 14</text></g><g class="tick" opacity="1" transform="translate(587.1666666666666,0)"><line stroke="currentColor" y2="-300"></line><text fill="currentColor" y="3" dy=".15em" style="text-anchor: end;" dx="-.8em" transform="rotate(-45)">Dec 15</text></g><g class="tick" opacity="1" transform="translate(733.8333333333334,0)"><line stroke="currentColor" y2="-300"></line><text fill="currentColor" y="3" dy=".15em" style="text-anchor: end;" dx="-.8em" transform="rotate(-45)">Mon 16</text></g><g class="tick" opacity="1" transform="translate(880.5,0)"><line stroke="currentColor" y2="-300"></line><text fill="currentColor" y="3" dy=".15em" style="text-anchor: end;" dx="-.8em" transform="rotate(-45)">Tue 17</text></g></g><g class="y-axis" fill="none" font-size="10" font-family="sans-serif" text-anchor="end"><path class="domain" stroke="currentColor" d="M880,300.5H0.5V0.5H880"></path><g class="tick" opacity="1" transform="translate(0,300.5)"><line stroke="currentColor" x2="880"></line><text fill="currentColor" x="-3" dy="0.32em">0</text></g><g class="tick" opacity="1" transform="translate(0,233.83333333333334)"><line stroke="currentColor" x2="880"></line><text fill="currentColor" x="-3" dy="0.32em">100</text></g><g class="tick" opacity="1" transform="translate(0,167.16666666666669)"><line stroke="currentColor" x2="880"></line><text fill="currentColor" x="-3" dy="0.32em">200</text></g><g class="tick" opacity="1" transform="translate(0,100.50000000000001)"><line stroke="currentColor" x2="880"></line><text fill="currentColor" x="-3" dy="0.32em">300</text></g><g class="tick" opacity="1" transform="translate(0,33.83333333333335)"><line stroke="currentColor" x2="880"></line><text fill="currentColor" x="-3" dy="0.32em">400</text></g></g><style>
    .grid line {
      stroke: #e0e0e0;
      stroke-opacity: 0.7;
      shape-rendering: crispEdges;
    }
    .grid path {
      stroke-width: 0;
    }
    .dot:hover {
      r: 6;
    }
    text {
      font-family: Arial, sans-serif;
    }
    .x-axis path, .y-axis path {
      stroke: #ccc;
    }
    .x-axis text, .y-axis text {
      fill: #666;
    }
  </style></g></svg>