<svg xmlns="http://www.w3.org/2000/svg" width="1000" height="400"><g transform="translate(60,40)"><text x="440" y="-20" text-anchor="middle" style="font-size: 16px; font-weight: bold;">最近14天使用次数趋势</text><g class="grid" transform="translate(0,300)" fill="none" font-size="10" font-family="sans-serif" text-anchor="middle"><path class="domain" stroke="currentColor" d="M0.5,-300V0.5H880.5V-300"></path><g class="tick" opacity="1" transform="translate(0.5,0)"><line stroke="currentColor" y2="-300"></line><text fill="currentColor" y="3" dy="0.71em">Jan 12</text></g><g class="tick" opacity="1" transform="translate(68.1923076923077,0)"><line stroke="currentColor" y2="-300"></line><text fill="currentColor" y="3" dy="0.71em">Mon 13</text></g><g class="tick" opacity="1" transform="translate(135.8846153846154,0)"><line stroke="currentColor" y2="-300"></line><text fill="currentColor" y="3" dy="0.71em">Tue 14</text></g><g class="tick" opacity="1" transform="translate(203.5769230769231,0)"><line stroke="currentColor" y2="-300"></line><text fill="currentColor" y="3" dy="0.71em">Wed 15</text></g><g class="tick" opacity="1" transform="translate(271.2692307692308,0)"><line stroke="currentColor" y2="-300"></line><text fill="currentColor" y="3" dy="0.71em">Thu 16</text></g><g class="tick" opacity="1" transform="translate(338.96153846153845,0)"><line stroke="currentColor" y2="-300"></line><text fill="currentColor" y="3" dy="0.71em">Fri 17</text></g><g class="tick" opacity="1" transform="translate(406.6538461538462,0)"><line stroke="currentColor" y2="-300"></line><text fill="currentColor" y="3" dy="0.71em">Sat 18</text></g><g class="tick" opacity="1" transform="translate(474.3461538461538,0)"><line stroke="currentColor" y2="-300"></line><text fill="currentColor" y="3" dy="0.71em">Jan 19</text></g><g class="tick" opacity="1" transform="translate(542.0384615384615,0)"><line stroke="currentColor" y2="-300"></line><text fill="currentColor" y="3" dy="0.71em">Mon 20</text></g><g class="tick" opacity="1" transform="translate(609.7307692307692,0)"><line stroke="currentColor" y2="-300"></line><text fill="currentColor" y="3" dy="0.71em">Tue 21</text></g><g class="tick" opacity="1" transform="translate(677.4230769230769,0)"><line stroke="currentColor" y2="-300"></line><text fill="currentColor" y="3" dy="0.71em">Wed 22</text></g><g class="tick" opacity="1" transform="translate(745.1153846153846,0)"><line stroke="currentColor" y2="-300"></line><text fill="currentColor" y="3" dy="0.71em">Thu 23</text></g><g class="tick" opacity="1" transform="translate(812.8076923076924,0)"><line stroke="currentColor" y2="-300"></line><text fill="currentColor" y="3" dy="0.71em">Fri 24</text></g><g class="tick" opacity="1" transform="translate(880.5,0)"><line stroke="currentColor" y2="-300"></line><text fill="currentColor" y="3" dy="0.71em">Sat 25</text></g></g><g class="grid" fill="none" font-size="10" font-family="sans-serif" text-anchor="end"><path class="domain" stroke="currentColor" d="M880,300.5H0.5V0.5H880"></path><g class="tick" opacity="1" transform="translate(0,300.5)"><line stroke="currentColor" x2="880"></line><text fill="currentColor" x="-3" dy="0.32em">0</text></g><g class="tick" opacity="1" transform="translate(0,245.95454545454544)"><line stroke="currentColor" x2="880"></line><text fill="currentColor" x="-3" dy="0.32em">20</text></g><g class="tick" opacity="1" transform="translate(0,191.4090909090909)"><line stroke="currentColor" x2="880"></line><text fill="currentColor" x="-3" dy="0.32em">40</text></g><g class="tick" opacity="1" transform="translate(0,136.86363636363637)"><line stroke="currentColor" x2="880"></line><text fill="currentColor" x="-3" dy="0.32em">60</text></g><g class="tick" opacity="1" transform="translate(0,82.31818181818181)"><line stroke="currentColor" x2="880"></line><text fill="currentColor" x="-3" dy="0.32em">80</text></g><g class="tick" opacity="1" transform="translate(0,27.77272727272728)"><line stroke="currentColor" x2="880"></line><text fill="currentColor" x="-3" dy="0.32em">100</text></g></g><path class="area" d="M0,300C22.564,185.455,45.128,70.909,67.692,70.909C90.256,70.909,112.821,280.909,135.385,280.909C157.949,280.909,180.513,280.909,203.077,280.909C225.641,280.909,248.205,261.818,270.769,261.818C293.333,261.818,315.897,300,338.462,300C361.026,300,383.59,128.182,406.154,128.182C428.718,128.182,451.282,261.818,473.846,261.818C496.41,261.818,518.974,223.636,541.538,223.636C564.103,223.636,586.667,300,609.231,300C631.795,300,654.359,287.273,676.923,280.909C699.487,274.545,722.051,268.182,744.615,261.818C767.179,255.455,789.744,242.727,812.308,242.727C834.872,242.727,857.436,261.818,880,280.909L880,300C857.436,300,834.872,300,812.308,300C789.744,300,767.179,300,744.615,300C722.051,300,699.487,300,676.923,300C654.359,300,631.795,300,609.231,300C586.667,300,564.103,300,541.538,300C518.974,300,496.41,300,473.846,300C451.282,300,428.718,300,406.154,300C383.59,300,361.026,300,338.462,300C315.897,300,293.333,300,270.769,300C248.205,300,225.641,300,203.077,300C180.513,300,157.949,300,135.385,300C112.821,300,90.256,300,67.692,300C45.128,300,22.564,300,0,300Z" style="fill: url(#area-gradient); opacity: 0.3;"></path><path class="line" d="M0,300C22.564,185.455,45.128,70.909,67.692,70.909C90.256,70.909,112.821,280.909,135.385,280.909C157.949,280.909,180.513,280.909,203.077,280.909C225.641,280.909,248.205,261.818,270.769,261.818C293.333,261.818,315.897,300,338.462,300C361.026,300,383.59,128.182,406.154,128.182C428.718,128.182,451.282,261.818,473.846,261.818C496.41,261.818,518.974,223.636,541.538,223.636C564.103,223.636,586.667,300,609.231,300C631.795,300,654.359,287.273,676.923,280.909C699.487,274.545,722.051,268.182,744.615,261.818C767.179,255.455,789.744,242.727,812.308,242.727C834.872,242.727,857.436,261.818,880,280.909" style="fill: none; stroke: #2196F3; stroke-width: 2px;"></path><circle class="dot" cx="0" cy="300" r="4" style="fill: #2196F3; stroke: #fff; stroke-width: 2px;"></circle><circle class="dot" cx="67.6923076923077" cy="70.9090909090909" r="4" style="fill: #2196F3; stroke: #fff; stroke-width: 2px;"></circle><circle class="dot" cx="135.3846153846154" cy="280.90909090909093" r="4" style="fill: #2196F3; stroke: #fff; stroke-width: 2px;"></circle><circle class="dot" cx="203.0769230769231" cy="280.90909090909093" r="4" style="fill: #2196F3; stroke: #fff; stroke-width: 2px;"></circle><circle class="dot" cx="270.7692307692308" cy="261.8181818181818" r="4" style="fill: #2196F3; stroke: #fff; stroke-width: 2px;"></circle><circle class="dot" cx="338.46153846153845" cy="300" r="4" style="fill: #2196F3; stroke: #fff; stroke-width: 2px;"></circle><circle class="dot" cx="406.1538461538462" cy="128.1818181818182" r="4" style="fill: #2196F3; stroke: #fff; stroke-width: 2px;"></circle><circle class="dot" cx="473.8461538461538" cy="261.8181818181818" r="4" style="fill: #2196F3; stroke: #fff; stroke-width: 2px;"></circle><circle class="dot" cx="541.5384615384615" cy="223.63636363636365" r="4" style="fill: #2196F3; stroke: #fff; stroke-width: 2px;"></circle><circle class="dot" cx="609.2307692307692" cy="300" r="4" style="fill: #2196F3; stroke: #fff; stroke-width: 2px;"></circle><circle class="dot" cx="676.9230769230769" cy="280.90909090909093" r="4" style="fill: #2196F3; stroke: #fff; stroke-width: 2px;"></circle><circle class="dot" cx="744.6153846153846" cy="261.8181818181818" r="4" style="fill: #2196F3; stroke: #fff; stroke-width: 2px;"></circle><circle class="dot" cx="812.3076923076924" cy="242.72727272727272" r="4" style="fill: #2196F3; stroke: #fff; stroke-width: 2px;"></circle><circle class="dot" cx="880" cy="280.90909090909093" r="4" style="fill: #2196F3; stroke: #fff; stroke-width: 2px;"></circle><text class="label" x="0" y="290" text-anchor="middle" style="font-size: 12px;">0</text><text class="label" x="67.6923076923077" y="60.90909090909091" text-anchor="middle" style="font-size: 12px;">84</text><text class="label" x="135.3846153846154" y="270.90909090909093" text-anchor="middle" style="font-size: 12px;">7</text><text class="label" x="203.0769230769231" y="270.90909090909093" text-anchor="middle" style="font-size: 12px;">7</text><text class="label" x="270.7692307692308" y="251.8181818181818" text-anchor="middle" style="font-size: 12px;">14</text><text class="label" x="338.46153846153845" y="290" text-anchor="middle" style="font-size: 12px;">0</text><text class="label" x="406.1538461538462" y="118.18181818181819" text-anchor="middle" style="font-size: 12px;">63</text><text class="label" x="473.8461538461538" y="251.8181818181818" text-anchor="middle" style="font-size: 12px;">14</text><text class="label" x="541.5384615384615" y="213.63636363636365" text-anchor="middle" style="font-size: 12px;">28</text><text class="label" x="609.2307692307692" y="290" text-anchor="middle" style="font-size: 12px;">0</text><text class="label" x="676.9230769230769" y="270.90909090909093" text-anchor="middle" style="font-size: 12px;">7</text><text class="label" x="744.6153846153846" y="251.8181818181818" text-anchor="middle" style="font-size: 12px;">14</text><text class="label" x="812.3076923076924" y="232.72727272727272" text-anchor="middle" style="font-size: 12px;">21</text><text class="label" x="880" y="270.90909090909093" text-anchor="middle" style="font-size: 12px;">7</text><g class="x-axis" transform="translate(0,300)" fill="none" font-size="10" font-family="sans-serif" text-anchor="middle"><path class="domain" stroke="currentColor" d="M0.5,-300V0.5H880.5V-300"></path><g class="tick" opacity="1" transform="translate(0.5,0)"><line stroke="currentColor" y2="-300"></line><text fill="currentColor" y="3" dy=".15em" style="text-anchor: end;" dx="-.8em" transform="rotate(-45)">Jan 12</text></g><g class="tick" opacity="1" transform="translate(68.1923076923077,0)"><line stroke="currentColor" y2="-300"></line><text fill="currentColor" y="3" dy=".15em" style="text-anchor: end;" dx="-.8em" transform="rotate(-45)">Mon 13</text></g><g class="tick" opacity="1" transform="translate(135.8846153846154,0)"><line stroke="currentColor" y2="-300"></line><text fill="currentColor" y="3" dy=".15em" style="text-anchor: end;" dx="-.8em" transform="rotate(-45)">Tue 14</text></g><g class="tick" opacity="1" transform="translate(203.5769230769231,0)"><line stroke="currentColor" y2="-300"></line><text fill="currentColor" y="3" dy=".15em" style="text-anchor: end;" dx="-.8em" transform="rotate(-45)">Wed 15</text></g><g class="tick" opacity="1" transform="translate(271.2692307692308,0)"><line stroke="currentColor" y2="-300"></line><text fill="currentColor" y="3" dy=".15em" style="text-anchor: end;" dx="-.8em" transform="rotate(-45)">Thu 16</text></g><g class="tick" opacity="1" transform="translate(338.96153846153845,0)"><line stroke="currentColor" y2="-300"></line><text fill="currentColor" y="3" dy=".15em" style="text-anchor: end;" dx="-.8em" transform="rotate(-45)">Fri 17</text></g><g class="tick" opacity="1" transform="translate(406.6538461538462,0)"><line stroke="currentColor" y2="-300"></line><text fill="currentColor" y="3" dy=".15em" style="text-anchor: end;" dx="-.8em" transform="rotate(-45)">Sat 18</text></g><g class="tick" opacity="1" transform="translate(474.3461538461538,0)"><line stroke="currentColor" y2="-300"></line><text fill="currentColor" y="3" dy=".15em" style="text-anchor: end;" dx="-.8em" transform="rotate(-45)">Jan 19</text></g><g class="tick" opacity="1" transform="translate(542.0384615384615,0)"><line stroke="currentColor" y2="-300"></line><text fill="currentColor" y="3" dy=".15em" style="text-anchor: end;" dx="-.8em" transform="rotate(-45)">Mon 20</text></g><g class="tick" opacity="1" transform="translate(609.7307692307692,0)"><line stroke="currentColor" y2="-300"></line><text fill="currentColor" y="3" dy=".15em" style="text-anchor: end;" dx="-.8em" transform="rotate(-45)">Tue 21</text></g><g class="tick" opacity="1" transform="translate(677.4230769230769,0)"><line stroke="currentColor" y2="-300"></line><text fill="currentColor" y="3" dy=".15em" style="text-anchor: end;" dx="-.8em" transform="rotate(-45)">Wed 22</text></g><g class="tick" opacity="1" transform="translate(745.1153846153846,0)"><line stroke="currentColor" y2="-300"></line><text fill="currentColor" y="3" dy=".15em" style="text-anchor: end;" dx="-.8em" transform="rotate(-45)">Thu 23</text></g><g class="tick" opacity="1" transform="translate(812.8076923076924,0)"><line stroke="currentColor" y2="-300"></line><text fill="currentColor" y="3" dy=".15em" style="text-anchor: end;" dx="-.8em" transform="rotate(-45)">Fri 24</text></g><g class="tick" opacity="1" transform="translate(880.5,0)"><line stroke="currentColor" y2="-300"></line><text fill="currentColor" y="3" dy=".15em" style="text-anchor: end;" dx="-.8em" transform="rotate(-45)">Sat 25</text></g></g><g class="y-axis" fill="none" font-size="10" font-family="sans-serif" text-anchor="end"><path class="domain" stroke="currentColor" d="M880,300.5H0.5V0.5H880"></path><g class="tick" opacity="1" transform="translate(0,300.5)"><line stroke="currentColor" x2="880"></line><text fill="currentColor" x="-3" dy="0.32em">0</text></g><g class="tick" opacity="1" transform="translate(0,245.95454545454544)"><line stroke="currentColor" x2="880"></line><text fill="currentColor" x="-3" dy="0.32em">20</text></g><g class="tick" opacity="1" transform="translate(0,191.4090909090909)"><line stroke="currentColor" x2="880"></line><text fill="currentColor" x="-3" dy="0.32em">40</text></g><g class="tick" opacity="1" transform="translate(0,136.86363636363637)"><line stroke="currentColor" x2="880"></line><text fill="currentColor" x="-3" dy="0.32em">60</text></g><g class="tick" opacity="1" transform="translate(0,82.31818181818181)"><line stroke="currentColor" x2="880"></line><text fill="currentColor" x="-3" dy="0.32em">80</text></g><g class="tick" opacity="1" transform="translate(0,27.77272727272728)"><line stroke="currentColor" x2="880"></line><text fill="currentColor" x="-3" dy="0.32em">100</text></g></g><style>
    .grid line {
      stroke: #e0e0e0;
      stroke-opacity: 0.7;
      shape-rendering: crispEdges;
    }
    .grid path {
      stroke-width: 0;
    }
    .dot:hover {
      r: 6;
    }
    text {
      font-family: Arial, sans-serif;
    }
    .x-axis path, .y-axis path {
      stroke: #ccc;
    }
    .x-axis text, .y-axis text {
      fill: #666;
    }
  </style></g></svg>